<svg width="74" height="74" viewBox="0 0 74 74" fill="none" xmlns="http://www.w3.org/2000/svg">
<g clip-path="url(#clip0_1196_4661)">
<path d="M19.8172 58.4576H13.7196C12.8781 58.4576 12.1952 57.7684 12.1952 56.9192C12.1952 56.0701 12.8781 55.3809 13.7196 55.3809H19.8172C20.6586 55.3809 21.3416 56.0701 21.3416 56.9192C21.3416 57.7684 20.6586 58.4576 19.8172 58.4576Z" fill="white"/>
<path d="M69.3605 58.4585H65.5495C64.708 58.4585 64.0251 57.7693 64.0251 56.9201C64.0251 56.0709 64.708 55.3817 65.5495 55.3817H68.0952L70.1501 44.33C70.1227 38.6749 65.3361 33.8443 59.4519 33.8443H49.4427L44.5921 55.3817H53.3543C54.1958 55.3817 54.8787 56.0709 54.8787 56.9201C54.8787 57.7693 54.1958 58.4585 53.3543 58.4585H42.6835C42.2201 58.4585 41.7811 58.2462 41.4914 57.88C41.2018 57.517 41.0921 57.037 41.1957 56.5816L46.7384 31.9675C46.897 31.2629 47.5128 30.7676 48.2262 30.7676H59.4519C67.016 30.7676 73.1715 36.9796 73.1715 44.613L70.8574 57.2032C70.7233 57.9323 70.0952 58.4585 69.3605 58.4585Z" fill="white"/>
<path d="M59.4517 64.6123C55.2505 64.6123 51.8297 61.1633 51.8297 56.9204C51.8297 52.6776 55.2505 49.2285 59.4517 49.2285C63.653 49.2285 67.0737 52.6776 67.0737 56.9204C67.0737 61.1633 63.653 64.6123 59.4517 64.6123ZM59.4517 52.3053C56.9304 52.3053 54.8785 54.3759 54.8785 56.9204C54.8785 59.4649 56.9304 61.5356 59.4517 61.5356C61.9731 61.5356 64.0249 59.4649 64.0249 56.9204C64.0249 54.3759 61.9731 52.3053 59.4517 52.3053Z" fill="white"/>
<path d="M25.9149 64.6123C21.7137 64.6123 18.2929 61.1633 18.2929 56.9204C18.2929 52.6776 21.7137 49.2285 25.9149 49.2285C30.1161 49.2285 33.5369 52.6776 33.5369 56.9204C33.5369 61.1633 30.1161 64.6123 25.9149 64.6123ZM25.9149 52.3053C23.3935 52.3053 21.3417 54.3759 21.3417 56.9204C21.3417 59.4649 23.3935 61.5356 25.9149 61.5356C28.4362 61.5356 30.4881 59.4649 30.4881 56.9204C30.4881 54.3759 28.4362 52.3053 25.9149 52.3053Z" fill="white"/>
<path d="M19.8173 30.7682H7.62211C6.78065 30.7682 6.09772 30.079 6.09772 29.2298C6.09772 28.3806 6.78065 27.6914 7.62211 27.6914H19.8173C20.6588 27.6914 21.3417 28.3806 21.3417 29.2298C21.3417 30.079 20.6588 30.7682 19.8173 30.7682Z" fill="white"/>
<path d="M19.8171 39.9967H4.57313C3.73167 39.9967 3.04874 39.3075 3.04874 38.4583C3.04874 37.6091 3.73167 36.9199 4.57313 36.9199H19.8171C20.6586 36.9199 21.3415 37.6091 21.3415 38.4583C21.3415 39.3075 20.6586 39.9967 19.8171 39.9967Z" fill="white"/>
<path d="M19.8172 49.2272H1.5244C0.68293 49.2272 0 48.538 0 47.6888C0 46.8396 0.68293 46.1504 1.5244 46.1504H19.8172C20.6586 46.1504 21.3416 46.8396 21.3416 47.6888C21.3416 48.538 20.6586 49.2272 19.8172 49.2272Z" fill="white"/>
<path d="M42.6831 58.4583H32.0124C31.1709 58.4583 30.488 57.7691 30.488 56.9199C30.488 56.0707 31.1709 55.3815 32.0124 55.3815H41.4667L48.3935 24.6139H13.7196C12.8781 24.6139 12.1952 23.9247 12.1952 23.0755C12.1952 22.2263 12.8781 21.5371 13.7196 21.5371H50.3051C50.7686 21.5371 51.2076 21.7494 51.4972 22.1155C51.7869 22.4786 51.8966 22.9586 51.793 23.4139L44.171 57.2584C44.0124 57.9629 43.3935 58.4583 42.6831 58.4583Z" fill="white"/>
</g>
<defs>
<clipPath id="clip0_1196_4661">
<rect width="73.1711" height="73.8424" fill="white"/>
</clipPath>
</defs>
</svg>
