<svg width="62" height="62" viewBox="0 0 62 62" fill="none" xmlns="http://www.w3.org/2000/svg">
<g clip-path="url(#clip0_1196_4673)">
<path d="M42.6694 51.6923H4.11739C2.26017 51.6923 0.748474 50.1806 0.748474 48.3234V17.3934C0.748474 16.6922 1.31758 16.123 2.01881 16.123H50.2914C50.9926 16.123 51.5617 16.6922 51.5617 17.3934V27.556C51.5617 28.2573 50.9926 28.8264 50.2914 28.8264C49.5902 28.8264 49.0211 28.2573 49.0211 27.556V18.6637H3.28914V48.3234C3.28914 48.7807 3.66007 49.1517 4.11739 49.1517H42.6694C43.3706 49.1517 43.9397 49.7208 43.9397 50.422C43.9397 51.1232 43.3706 51.6923 42.6694 51.6923Z" fill="white"/>
<path d="M50.2913 18.6635C49.8441 18.6635 49.4097 18.4273 49.1785 18.0055L41.5057 4.0776C41.2846 3.67109 40.8578 3.41957 40.3929 3.41957H11.9171C11.4522 3.41957 11.0253 3.67109 10.8043 4.0776L3.13151 18.0055C2.7936 18.6229 2.01616 18.8389 1.4064 18.506C0.791558 18.1681 0.567979 17.3932 0.905887 16.7809L8.57869 2.853C9.24688 1.63348 10.5274 0.878906 11.9171 0.878906H40.3954C41.7851 0.878906 43.0656 1.63348 43.7338 2.85046L51.4041 16.7784C51.7445 17.3932 51.521 18.1656 50.9061 18.5035C50.7105 18.6127 50.4996 18.6635 50.2913 18.6635Z" fill="white"/>
<path d="M26.1554 18.6635C25.4542 18.6635 24.8851 18.0944 24.8851 17.3932V2.14924C24.8851 1.44801 25.4542 0.878906 26.1554 0.878906C26.8566 0.878906 27.4257 1.44801 27.4257 2.14924V17.3932C27.4257 18.0944 26.8566 18.6635 26.1554 18.6635Z" fill="white"/>
<path d="M60.454 61.8542C59.7528 61.8542 59.1837 61.2851 59.1837 60.5839V55.5026C59.1837 47.7968 52.9133 41.5289 45.2101 41.5289H40.1287C39.4275 41.5289 38.8584 40.9598 38.8584 40.2586C38.8584 39.5574 39.4275 38.9883 40.1287 38.9883H45.2101C54.3158 38.9883 61.7244 46.3969 61.7244 55.5026V60.5839C61.7244 61.2851 61.1553 61.8542 60.454 61.8542Z" fill="white"/>
<path d="M49.021 49.152C48.7289 49.152 48.4342 49.0504 48.1953 48.8446L39.303 41.2226C39.0185 40.9838 38.8584 40.6306 38.8584 40.2597C38.8584 39.8887 39.0185 39.5356 39.303 39.2968L48.1953 31.6748C48.7263 31.22 49.5241 31.2784 49.9865 31.812C50.4438 32.343 50.3803 33.1458 49.8468 33.6032L42.0825 40.2597L49.8493 46.9188C50.3828 47.3761 50.4438 48.1764 49.989 48.7099C49.7324 49.0021 49.3793 49.152 49.021 49.152Z" fill="white"/>
</g>
<defs>
<clipPath id="clip0_1196_4673">
<rect width="60.9759" height="60.9759" fill="white" transform="translate(0.748383 0.878906)"/>
</clipPath>
</defs>
</svg>
