<svg width="62" height="56" viewBox="0 0 62 56" fill="none" xmlns="http://www.w3.org/2000/svg">
<path d="M57.9397 0.851562H4.07964C2.1177 0.851562 0.521729 2.44777 0.521729 4.40948V37.7856C0.521729 39.7472 2.1177 41.3433 4.07964 41.3433H29.159C30.2222 45.8414 32.6263 49.0272 34.7275 51.0682C37.7944 54.0477 41.31 55.6344 42.6687 55.6344C44.0274 55.6344 47.543 54.0478 50.61 51.0683C52.7112 49.0272 55.1154 45.8414 56.1785 41.3434H57.9397C59.9015 41.3434 61.4976 39.7473 61.4976 37.7857V4.40948C61.4976 2.44777 59.9015 0.851562 57.9397 0.851562ZM54.3519 36.4626C54.352 42.7374 51.4556 46.8996 49.0256 49.2863C46.1432 52.1175 43.1864 53.2188 42.6687 53.2523C42.1509 53.2188 39.1941 52.1177 36.3117 49.2863C33.8819 46.8996 30.9854 42.7374 30.9854 36.4626V30.5977C35.0858 29.4119 38.9225 27.789 42.6691 25.6563C46.3312 27.7349 50.3399 29.4299 54.3519 30.597V36.4626ZM59.1158 37.7856C59.1158 38.434 58.5881 38.9614 57.9397 38.9614H56.5927C56.6839 38.1634 56.7339 37.3312 56.7339 36.4626V29.6948C56.7339 29.1572 56.3738 28.6864 55.8551 28.5455C51.5305 27.3711 47.1787 25.5412 43.2703 23.2535C42.8987 23.036 42.4388 23.0363 42.067 23.2537C38.0478 25.6063 33.9313 27.3371 29.4824 28.5455C28.9637 28.6865 28.6036 29.1573 28.6036 29.6948V36.4626C28.6036 37.3312 28.6535 38.1634 28.7448 38.9614H4.07964C3.43118 38.9614 2.9036 38.4338 2.9036 37.7856V17.5244H59.1158V37.7856ZM59.1158 15.1426H2.9036V10.3791H59.1158V15.1426ZM59.1158 7.99716H2.9036V4.40948C2.9036 3.76101 3.43118 3.23343 4.07964 3.23343H57.9397C58.5881 3.23343 59.1158 3.76101 59.1158 4.40948V7.99716Z" fill="white"/>
</svg>
