<svg width="62" height="62" viewBox="0 0 62 62" fill="none" xmlns="http://www.w3.org/2000/svg">
<g clip-path="url(#clip0_1196_4707)">
<path d="M50.3126 45.5292C52.697 47.9354 52.6974 51.8303 50.3126 54.2368L48.8428 55.7201C48.4457 56.1208 47.8019 56.1209 47.4048 55.7201C47.0077 55.3192 47.0076 54.6695 47.4048 54.2688L48.8746 52.7855C50.4642 51.1814 50.4645 48.5849 48.8746 46.9804L43.2122 41.266C41.6262 39.6656 39.0457 39.6656 37.4599 41.266L35.093 43.6546C33.1723 45.593 30.0633 45.5932 28.1423 43.6546L17.6563 33.0724C15.7355 31.134 15.7353 27.9965 17.6563 26.0579L20.0232 23.6693C21.6091 22.0688 21.6091 19.4647 20.0232 17.8642L14.3607 12.1499C12.7711 10.5457 10.1981 10.5456 8.60837 12.1499L6.54107 14.236C0.977362 19.8509 0.976853 28.9385 6.54107 34.5539L26.6742 54.8717C30.6721 58.9062 36.6589 60.172 41.927 58.0965C42.4502 57.8904 43.0398 58.1513 43.244 58.6791C43.4483 59.2071 43.1898 59.8022 42.6667 60.0083C36.6404 62.3826 29.8 60.9288 25.2362 56.3229L5.10295 36.0052C-1.2407 29.6033 -1.2407 19.1867 5.10295 12.7849L7.17026 10.6987C9.55458 8.29239 13.414 8.29201 15.7987 10.6987L21.4612 16.413C23.84 18.8137 23.84 22.7199 21.4612 25.1206L19.0943 27.5092C17.9683 28.6455 17.9682 30.4847 19.0943 31.6212L29.5803 42.2034C30.7035 43.3371 32.5314 43.3371 33.6549 42.2034L36.0218 39.8148C38.4005 37.4143 42.2714 37.4141 44.6502 39.8148L50.3126 45.5292ZM56.2368 0.839844H30.8149C28.0114 0.839844 25.7305 3.14162 25.7305 5.97086V16.2329C25.7305 19.0622 28.0114 21.3639 30.8149 21.3639H31.8318V24.6991C31.8318 25.2668 32.2885 25.7253 32.8486 25.7253C33.2366 25.7253 32.7204 25.9718 40.6027 21.2186C41.0848 20.9279 41.2421 20.2978 40.954 19.8113C40.666 19.3247 40.0416 19.1661 39.5595 19.4567L33.8655 22.8904V20.3377C33.8655 19.771 33.4102 19.3115 32.8486 19.3115H30.8149C29.1329 19.3115 27.7643 17.9304 27.7643 16.2329V5.97086C27.7643 4.27339 29.1329 2.89225 30.8149 2.89225H56.2368C57.9188 2.89225 59.2874 4.27339 59.2874 5.97086V16.2329C59.2874 17.9304 57.9188 19.3115 56.2368 19.3115H45.6444C45.0828 19.3115 44.6275 19.771 44.6275 20.3377C44.6275 20.9044 45.0828 21.3639 45.6444 21.3639H56.2368C59.0403 21.3639 61.3211 19.0622 61.3211 16.2329V5.97086C61.3211 3.14162 59.0403 0.839844 56.2368 0.839844ZM33.7384 12.1281C35.2804 12.1281 36.5348 10.8621 36.5348 9.30603C36.5348 7.74992 35.2804 6.48397 33.7384 6.48397H31.9589C31.3973 6.48397 30.942 6.94345 30.942 7.51017C30.942 8.07689 31.3973 8.53637 31.9589 8.53637H33.7384C34.159 8.53637 34.5011 8.88156 34.5011 9.30603C34.5011 9.73049 34.159 10.0757 33.7384 10.0757C32.1964 10.0757 30.942 11.3416 30.942 12.8977V14.6936C30.942 15.2603 31.3973 15.7198 31.9589 15.7198H35.5179C36.0795 15.7198 36.5348 15.2603 36.5348 14.6936C36.5348 14.1269 36.0795 13.6674 35.5179 13.6674H32.9757V12.8977C32.9757 12.4733 33.3178 12.1281 33.7384 12.1281ZM42.6361 15.7198C43.1976 15.7198 43.6529 15.2603 43.6529 14.6936C43.6529 13.8217 43.6529 8.38539 43.6529 7.51017C43.6529 6.94345 43.1976 6.48397 42.6361 6.48397C42.0745 6.48397 41.6192 6.94345 41.6192 7.51017V10.0757H40.0939V7.51017C40.0939 6.94345 39.6386 6.48397 39.077 6.48397C38.5154 6.48397 38.0601 6.94345 38.0601 7.51017V11.1019C38.0601 11.6686 38.5154 12.1281 39.077 12.1281H41.6192V14.6936C41.6192 15.2603 42.0744 15.7198 42.6361 15.7198ZM52.6169 15.7201C53.0391 15.7201 53.4336 15.4527 53.5785 15.0272L56.0254 7.84381C56.2521 7.17819 55.7612 6.48397 55.0638 6.48397H51.5338C50.9723 6.48397 50.517 6.94345 50.517 7.51017C50.517 8.07689 50.9723 8.53637 51.5338 8.53637H53.639L51.6554 14.36C51.4272 15.029 51.9232 15.7204 52.6169 15.7201ZM47.1525 14.9398L48.932 7.75633C49.0682 7.20641 48.7369 6.64931 48.1921 6.5118C47.6472 6.37455 47.0952 6.7087 46.9589 7.25849L45.1794 14.4419C45.0433 14.9918 45.3745 15.5489 45.9193 15.6865C46.465 15.8238 47.0165 15.489 47.1525 14.9398Z" fill="white"/>
</g>
<defs>
<clipPath id="clip0_1196_4707">
<rect width="60.9759" height="61.5353" fill="white" transform="translate(0.344971 0.220703)"/>
</clipPath>
</defs>
</svg>
