<svg width="20" height="20" viewBox="0 0 20 20" fill="none" xmlns="http://www.w3.org/2000/svg">
<path d="M18.125 10.5417C18.9904 10.5417 19.7472 11.2462 19.75 12.1667V18.125C19.75 18.9904 19.0542 19.75 18.125 19.75H12.1667C11.3013 19.75 10.5444 19.045 10.5417 18.125V12.1667C10.5417 11.3013 11.2395 10.5417 12.1667 10.5417H18.125ZM7.83333 10.5417C8.69874 10.5417 9.45557 11.2462 9.45833 12.1667V18.125C9.45833 18.9904 8.76257 19.75 7.83333 19.75H1.875C1.00959 19.75 0.252759 19.045 0.25 18.125V12.1667C0.25 11.3013 0.947784 10.5417 1.875 10.5417H7.83333ZM18.125 11.625H12.1667C11.8889 11.625 11.625 11.8505 11.625 12.1667V18.125C11.625 18.4028 11.8432 18.6667 12.1667 18.6667H18.125C18.4028 18.6667 18.6667 18.4485 18.6667 18.125V12.1667C18.6667 11.8889 18.4536 11.625 18.125 11.625ZM7.83333 11.625H1.875C1.59721 11.625 1.33333 11.8505 1.33333 12.1667V18.125C1.33333 18.4028 1.55149 18.6667 1.875 18.6667H7.83333C8.11112 18.6667 8.375 18.4485 8.375 18.125V12.1667C8.375 11.8889 8.16198 11.625 7.83333 11.625ZM18.125 0.25C18.9904 0.25 19.7472 0.954526 19.75 1.875V7.83333C19.75 8.69874 19.0542 9.45833 18.125 9.45833H12.1667C11.3013 9.45833 10.5444 8.75329 10.5417 7.83333V1.875C10.5417 1.00959 11.2395 0.25 12.1667 0.25H18.125ZM7.83333 0.25C8.69874 0.25 9.45557 0.954526 9.45833 1.875V7.83333C9.45833 8.69874 8.76257 9.45833 7.83333 9.45833H1.875C1.00959 9.45833 0.252759 8.75329 0.25 7.83333V1.875C0.25 1.00959 0.947784 0.25 1.875 0.25H7.83333ZM18.125 1.33333H12.1667C11.8889 1.33333 11.625 1.55888 11.625 1.875V7.83333C11.625 8.11112 11.8432 8.375 12.1667 8.375H18.125C18.4028 8.375 18.6667 8.15685 18.6667 7.83333V1.875C18.6667 1.59721 18.4536 1.33333 18.125 1.33333ZM7.83333 1.33333H1.875C1.59721 1.33333 1.33333 1.55888 1.33333 1.875V7.83333C1.33333 8.11112 1.55149 8.375 1.875 8.375H7.83333C8.11112 8.375 8.375 8.15685 8.375 7.83333V1.875C8.375 1.59721 8.16198 1.33333 7.83333 1.33333Z" fill="#737576"/>
</svg>
