<svg width="137" height="138" viewBox="0 0 137 138" fill="none" xmlns="http://www.w3.org/2000/svg">
<path d="M59.57 12.6985L58.3955 1.41406L62.2084 1.01721C63.09 0.925457 63.8293 1.00075 64.4264 1.24308C65.023 1.48174 65.4844 1.84773 65.8105 2.34106C66.1367 2.83438 66.3343 3.41347 66.4035 4.07834C66.4727 4.74322 66.3982 5.34693 66.1799 5.88949C65.9616 6.43205 65.5867 6.8795 65.0553 7.23187C64.5234 7.58055 63.8204 7.80039 62.9462 7.89139L59.8606 8.21253L59.7321 6.9783L62.7736 6.66174C63.3761 6.59904 63.8518 6.46041 64.2007 6.24586C64.5534 6.03092 64.7955 5.75323 64.9272 5.41277C65.0621 5.06826 65.1061 4.67009 65.0591 4.21827C65.0121 3.76645 64.8865 3.38037 64.6823 3.06001C64.4782 2.73965 64.181 2.50694 63.7909 2.36189C63.4004 2.21316 62.9003 2.17053 62.2905 2.234L59.8882 2.48404L60.9365 12.5563L59.57 12.6985ZM64.354 7.07649L67.6587 11.8566L66.0718 12.0218L62.8112 7.23707L64.354 7.07649Z" fill="#1F1E23"/>
<path d="M76.5383 12.6346C75.7247 12.5334 75.0452 12.2665 74.4999 11.8339C73.9586 11.3981 73.569 10.836 73.3308 10.1477C73.0968 9.45609 73.0336 8.67784 73.1412 7.81293C73.2489 6.94801 73.5013 6.20532 73.8986 5.58485C74.3 4.96118 74.8077 4.4996 75.4218 4.20013C76.0401 3.89745 76.7303 3.79354 77.4926 3.88839C77.9324 3.94311 78.3576 4.07045 78.7682 4.2704C79.1787 4.47035 79.5394 4.75714 79.8502 5.13076C80.1614 5.50071 80.388 5.96805 80.5298 6.53279C80.6717 7.09752 80.6936 7.77387 80.5956 8.56182L80.5272 9.11156L74.0183 8.30166L74.1578 7.1802L79.3473 7.82593C79.4066 7.34949 79.3642 6.91251 79.2202 6.51497C79.0798 6.11789 78.8489 5.78958 78.5277 5.53003C78.2101 5.27093 77.8167 5.1122 77.3476 5.05383C76.8309 4.98953 76.3678 5.06217 75.9584 5.27174C75.5531 5.4781 75.2244 5.77215 74.9722 6.15387C74.72 6.53559 74.5649 6.95918 74.507 7.42462L74.414 8.17226C74.3347 8.80996 74.3773 9.36421 74.5421 9.83503C74.7109 10.3026 74.9788 10.6765 75.3459 10.9566C75.7135 11.2331 76.1593 11.404 76.6834 11.4692C77.0242 11.5116 77.338 11.5022 77.6247 11.4412C77.9155 11.3769 78.1738 11.2601 78.3996 11.091C78.6258 10.9182 78.8121 10.692 78.9585 10.4125L80.1681 10.9203C79.9833 11.329 79.7151 11.6752 79.3634 11.959C79.0122 12.239 78.5964 12.4404 78.1159 12.563C77.6359 12.6819 77.1101 12.7058 76.5383 12.6346Z" fill="#1F1E23"/>
<path d="M91.902 7.41564L91.5548 8.46777L87.3673 7.08569L87.7146 6.03357L91.902 7.41564ZM89.574 4.50047L90.8155 4.91023L88.2736 12.6118C88.1578 12.9625 88.1219 13.2423 88.1657 13.4512C88.2142 13.6578 88.3093 13.8175 88.4509 13.9304C88.5972 14.0409 88.7616 14.1263 88.9439 14.1865C89.0807 14.2316 89.1953 14.2616 89.2876 14.2765C89.381 14.2879 89.4558 14.2971 89.5119 14.3039L89.3963 15.5025C89.3017 15.5063 89.1738 15.4991 89.0126 15.4809C88.8502 15.4662 88.6533 15.4206 88.4218 15.3442C88.0711 15.2285 87.7523 15.0396 87.4654 14.7777C87.182 14.5169 86.9807 14.1958 86.8617 13.8142C86.7461 13.4338 86.7658 13.0087 86.921 12.5387L89.574 4.50047Z" fill="#1F1E23"/>
<path d="M101.272 17.4215L103.744 13.0408L104.883 13.6834L100.701 21.0938L99.5623 20.4513L100.27 19.1969L100.193 19.1533C99.8069 19.4316 99.3561 19.5992 98.8406 19.656C98.327 19.7096 97.7903 19.5785 97.2306 19.2626C96.7675 19.0013 96.413 18.6676 96.1671 18.2617C95.923 17.8526 95.8143 17.3841 95.8408 16.8562C95.8691 16.3251 96.0611 15.7444 96.4169 15.114L99.0742 10.4053L100.213 11.0478L97.599 15.6793C97.2941 16.2197 97.202 16.736 97.3228 17.2282C97.4469 17.7223 97.7453 18.1028 98.2181 18.3696C98.5011 18.5293 98.8298 18.6194 99.2042 18.6398C99.5818 18.6621 99.9547 18.5799 100.323 18.3934C100.694 18.2086 101.011 17.8846 101.272 17.4215Z" fill="#1F1E23"/>
<path d="M105.759 24.7881L111.297 18.3285L112.256 19.1506L111.42 20.1263L111.487 20.184C111.879 19.9653 112.314 19.8887 112.793 19.9541C113.272 20.0194 113.705 20.218 114.092 20.5498C114.165 20.6123 114.255 20.6918 114.362 20.7883C114.469 20.8849 114.548 20.96 114.599 21.0137L113.734 22.023C113.707 21.9858 113.641 21.907 113.535 21.7869C113.434 21.6663 113.318 21.5495 113.186 21.4365C112.872 21.1672 112.535 20.9927 112.175 20.913C111.821 20.8328 111.473 20.8463 111.133 20.9536C110.798 21.0605 110.506 21.2598 110.256 21.5514L106.751 25.6391L105.759 24.7881Z" fill="#1F1E23"/>
<path d="M117.747 29.3542L113.726 32.5209L112.917 31.4937L119.602 26.2297L120.384 27.222L119.339 28.0445L119.408 28.1316C119.871 28.021 120.331 28.0441 120.788 28.2011C121.248 28.3558 121.677 28.6856 122.075 29.1905C122.431 29.6431 122.65 30.1123 122.732 30.598C122.816 31.0814 122.746 31.5648 122.52 32.0482C122.297 32.5292 121.901 32.9936 121.332 33.4414L117.084 36.7863L116.276 35.7591L120.454 32.4691C120.979 32.0556 121.281 31.597 121.359 31.0935C121.44 30.5877 121.294 30.0969 120.919 29.621C120.661 29.2931 120.359 29.056 120.013 28.9098C119.67 28.7664 119.304 28.7281 118.915 28.7948C118.525 28.8616 118.136 29.0481 117.747 29.3542Z" fill="#1F1E23"/>
<path d="M128.789 53.6513L133.59 52.1504L133.98 53.3982L125.859 55.9372L125.469 54.6894L126.844 54.2596L126.817 54.175C126.345 54.1136 125.902 53.9272 125.487 53.6157C125.076 53.3031 124.775 52.8402 124.583 52.2268C124.424 51.7192 124.394 51.2333 124.493 50.7691C124.595 50.3038 124.836 49.8878 125.217 49.5212C125.601 49.1534 126.139 48.8615 126.83 48.6455L131.99 47.0322L132.38 48.2801L127.304 49.8669C126.712 50.0521 126.292 50.3654 126.043 50.8069C125.795 51.252 125.752 51.7336 125.914 52.2518C126.011 52.562 126.189 52.8527 126.448 53.1238C126.708 53.3985 127.036 53.5939 127.432 53.71C127.829 53.8296 128.282 53.81 128.789 53.6513Z" fill="#1F1E23"/>
<path d="M123.924 62.2688L135.591 61.3863L135.686 62.6458L134.338 62.7477L134.35 62.9024C134.504 62.987 134.702 63.1054 134.943 63.2575C135.188 63.413 135.413 63.6442 135.618 63.9509C135.827 64.261 135.952 64.6923 135.994 65.2447C136.048 65.9591 135.917 66.6024 135.601 67.1744C135.285 67.7465 134.811 68.2101 134.178 68.5654C133.546 68.9206 132.784 69.132 131.893 69.1994C130.994 69.2674 130.204 69.1734 129.521 68.9177C128.843 68.6616 128.303 68.2765 127.901 67.7625C127.503 67.2481 127.277 66.6375 127.223 65.9304C127.182 65.3854 127.239 64.9421 127.395 64.6007C127.554 64.259 127.743 63.991 127.962 63.7967C128.184 63.6021 128.369 63.4511 128.517 63.3437L128.508 63.2332L124.023 63.5725L123.924 62.2688ZM131.445 62.9888C130.804 63.0372 130.246 63.1739 129.771 63.3988C129.299 63.6234 128.938 63.9266 128.689 64.3084C128.444 64.6899 128.341 65.1421 128.381 65.665C128.422 66.2101 128.6 66.654 128.915 66.9969C129.234 67.3431 129.645 67.5898 130.149 67.7369C130.657 67.8873 131.212 67.9397 131.816 67.8941C132.413 67.8489 132.944 67.7162 133.408 67.4958C133.877 67.2789 134.238 66.9757 134.49 66.5863C134.746 66.2002 134.853 65.731 134.811 65.1786C134.771 64.6483 134.603 64.2129 134.307 63.8723C134.014 63.5315 133.622 63.2871 133.129 63.1392C132.64 62.991 132.079 62.9409 131.445 62.9888Z" fill="#1F1E23"/>
<path d="M133.199 89.7513L132.131 89.4568L133.303 85.2057L134.371 85.5002L133.199 89.7513ZM135.994 87.281L135.647 88.5414L127.828 86.386C127.472 86.2878 127.191 86.2658 126.985 86.32C126.781 86.3787 126.626 86.4816 126.52 86.6287C126.417 86.7803 126.34 86.9487 126.289 87.1339C126.251 87.2727 126.226 87.3886 126.216 87.4815C126.209 87.5755 126.204 87.6506 126.2 87.7069L124.997 87.6512C124.989 87.5569 124.989 87.4288 125 87.2669C125.006 87.1039 125.042 86.905 125.107 86.67C125.205 86.314 125.378 85.9862 125.625 85.6866C125.871 85.3905 126.182 85.1736 126.557 85.0356C126.931 84.9013 127.357 84.8998 127.834 85.0314L135.994 87.281Z" fill="#1F1E23"/>
<path d="M121.255 96.2669C121.599 95.58 122.064 95.059 122.65 94.7041C123.235 94.3525 123.894 94.1785 124.628 94.1821C125.359 94.189 126.118 94.3891 126.904 94.7824C127.697 95.1791 128.317 95.669 128.764 96.2522C129.21 96.8387 129.467 97.4714 129.537 98.1502C129.604 98.8324 129.466 99.5169 129.122 100.204C128.778 100.891 128.314 101.41 127.729 101.762C127.143 102.117 126.482 102.29 125.747 102.281C125.011 102.276 124.246 102.075 123.453 101.678C122.667 101.285 122.053 100.796 121.611 100.211C121.166 99.6296 120.911 98.9978 120.843 98.3156C120.774 97.6368 120.911 96.9539 121.255 96.2669ZM122.305 96.7925C122.044 97.3143 121.963 97.8106 122.062 98.2814C122.161 98.7521 122.388 99.1775 122.743 99.5575C123.098 99.9375 123.53 100.255 124.038 100.509C124.547 100.764 125.061 100.92 125.582 100.978C126.102 101.036 126.582 100.964 127.021 100.763C127.46 100.562 127.811 100.2 128.072 99.6783C128.333 99.1565 128.412 98.6593 128.31 98.1869C128.208 97.7145 127.978 97.2875 127.619 96.9059C127.261 96.5242 126.828 96.2061 126.319 95.9516C125.811 95.6971 125.298 95.5416 124.781 95.4853C124.264 95.4289 123.787 95.5023 123.351 95.7053C122.915 95.9083 122.567 96.2707 122.305 96.7925Z" fill="#1F1E23"/>
<path d="M108.587 113.332L111.212 111.015L118.721 119.52L115.98 121.939C115.155 122.668 114.299 123.121 113.411 123.299C112.526 123.479 111.647 123.39 110.774 123.033C109.904 122.678 109.081 122.06 108.303 121.18C107.521 120.294 107.005 119.392 106.756 118.473C106.51 117.558 106.537 116.662 106.837 115.786C107.14 114.913 107.723 114.095 108.587 113.332ZM110.988 112.838L109.46 114.187C108.757 114.808 108.294 115.458 108.071 116.137C107.848 116.817 107.845 117.508 108.06 118.209C108.276 118.911 108.689 119.607 109.3 120.3C109.906 120.986 110.54 121.478 111.202 121.776C111.866 122.076 112.538 122.162 113.219 122.035C113.902 121.91 114.575 121.554 115.24 120.967L116.884 119.515L110.988 112.838Z" fill="#1F1E23"/>
<path d="M97.1138 121.277C97.5914 121.026 98.072 120.889 98.5555 120.865C99.0408 120.844 99.4879 120.945 99.8969 121.169C100.308 121.396 100.642 121.754 100.899 122.245C101.125 122.677 101.224 123.071 101.194 123.429C101.166 123.789 101.05 124.121 100.846 124.424C100.642 124.727 100.388 125.006 100.084 125.261C99.7788 125.521 99.463 125.766 99.137 125.996C98.7099 126.294 98.3618 126.533 98.0926 126.712C97.8219 126.895 97.6409 127.059 97.5495 127.203C97.4548 127.348 97.4563 127.514 97.554 127.701L97.5746 127.74C97.8284 128.224 98.158 128.531 98.5636 128.66C98.9659 128.791 99.4336 128.717 99.9668 128.438C100.52 128.148 100.89 127.8 101.077 127.393C101.264 126.986 101.349 126.612 101.333 126.271L102.638 126.087C102.681 126.648 102.607 127.142 102.413 127.568C102.218 128 101.953 128.368 101.617 128.674C101.279 128.984 100.92 129.239 100.541 129.438C100.299 129.565 100.005 129.681 99.6606 129.787C99.3141 129.897 98.9474 129.941 98.5604 129.919C98.1702 129.899 97.7835 129.761 97.4003 129.508C97.0172 129.254 96.6687 128.828 96.3549 128.229L93.7522 123.264L94.9101 122.657L95.4451 123.678L95.504 123.647C95.4967 123.442 95.5359 123.198 95.6213 122.916C95.7068 122.633 95.8673 122.347 96.1029 122.057C96.3385 121.766 96.6755 121.506 97.1138 121.277ZM97.4824 122.409C97.0245 122.649 96.6856 122.942 96.4659 123.286C96.2429 123.632 96.1259 123.99 96.1148 124.359C96.1004 124.729 96.1755 125.071 96.3401 125.385L96.8956 126.445C96.9138 126.36 96.9935 126.25 97.1346 126.113C97.2741 125.982 97.4424 125.841 97.6395 125.692C97.8349 125.548 98.0272 125.41 98.2163 125.277C98.4038 125.15 98.5555 125.045 98.6712 124.964C98.9515 124.767 99.1994 124.555 99.4148 124.33C99.6286 124.109 99.7703 123.871 99.8397 123.613C99.9075 123.361 99.8643 123.087 99.71 122.793C99.4991 122.391 99.1908 122.164 98.7851 122.114C98.3779 122.069 97.9436 122.168 97.4824 122.409Z" fill="#1F1E23"/>
<path d="M86.0906 122.818C86.3046 122.761 86.5002 122.728 86.6775 122.718C86.8537 122.705 86.9783 122.707 87.0511 122.721L87.0283 123.92C86.7004 123.924 86.4217 123.968 86.192 124.053C85.9623 124.137 85.7818 124.298 85.6505 124.536C85.5147 124.771 85.426 125.118 85.3845 125.577L85.3211 126.282L90.5742 133.729L89.2044 134.097L85.1806 128.155L85.095 128.178L84.5811 135.335L83.2113 135.702L84.1766 125.35C84.2198 124.883 84.3201 124.48 84.4774 124.139C84.6338 123.795 84.8472 123.515 85.1177 123.297C85.3846 123.08 85.7089 122.92 86.0906 122.818Z" fill="#1F1E23"/>
<path d="M69.418 135.24L70.5754 134.852C70.6585 135.044 70.7763 135.229 70.9289 135.407C71.078 135.588 71.2771 135.734 71.5264 135.844C71.7756 135.954 72.0902 136.001 72.4702 135.983C72.9903 135.958 73.4181 135.818 73.7535 135.561C74.0855 135.309 74.2428 135 74.2255 134.635C74.2101 134.31 74.0799 134.06 73.8349 133.883C73.5899 133.706 73.2136 133.566 72.7059 133.465L71.4296 133.215C70.6609 133.066 70.0813 132.811 69.6907 132.448C69.3003 132.09 69.0911 131.613 69.063 131.019C69.0399 130.532 69.1595 130.091 69.4217 129.694C69.6802 129.297 70.0533 128.976 70.5408 128.731C71.0283 128.486 71.6023 128.348 72.2626 128.317C73.1295 128.276 73.856 128.43 74.4419 128.779C75.0278 129.129 75.4135 129.661 75.599 130.377L74.3741 130.746C74.2344 130.294 73.995 129.961 73.6559 129.748C73.313 129.535 72.8741 129.441 72.3392 129.467C71.7305 129.496 71.2534 129.648 70.9078 129.923C70.5586 130.202 70.3927 130.524 70.41 130.889C70.424 131.184 70.539 131.427 70.755 131.616C70.9712 131.809 71.2956 131.945 71.7282 132.025L73.1605 132.29C73.9477 132.437 74.533 132.696 74.9165 133.066C75.2966 133.44 75.5005 133.92 75.5282 134.507C75.5509 134.986 75.4364 135.417 75.1845 135.799C74.929 136.181 74.572 136.488 74.1134 136.72C73.6512 136.953 73.1212 137.083 72.5236 137.111C71.6825 137.151 71.0135 136.998 70.5164 136.652C70.0157 136.306 69.6496 135.835 69.418 135.24Z" fill="#1F1E23"/>
<path d="M52.4825 125.897C52.996 126.062 53.4309 126.308 53.7874 126.635C54.1428 126.967 54.3844 127.356 54.5122 127.804C54.6389 128.256 54.6177 128.746 54.4486 129.273C54.2998 129.737 54.0877 130.084 53.8124 130.314C53.536 130.548 53.2183 130.698 52.8593 130.765C52.5004 130.832 52.1233 130.847 51.7281 130.81C51.3282 130.774 50.9323 130.721 50.5402 130.65C50.0275 130.555 49.6131 130.475 49.297 130.408C48.9762 130.344 48.7326 130.33 48.566 130.366C48.3958 130.401 48.2786 130.518 48.2144 130.719L48.2009 130.761C48.034 131.281 48.0468 131.732 48.2392 132.111C48.4281 132.49 48.8092 132.771 49.3825 132.955C49.9768 133.145 50.4845 133.165 50.9056 133.013C51.3266 132.86 51.6531 132.659 51.8849 132.407L52.9313 133.208C52.5625 133.633 52.1583 133.926 51.7186 134.088C51.2744 134.252 50.8255 134.321 50.3721 134.296C49.9139 134.273 49.4809 134.196 49.073 134.066C48.8127 133.982 48.5239 133.855 48.2066 133.683C47.8846 133.514 47.5958 133.284 47.3402 132.992C47.081 132.7 46.9073 132.328 46.8192 131.877C46.7311 131.426 46.7902 130.879 46.9965 130.235L48.7078 124.897L49.9527 125.296L49.601 126.393L49.6643 126.413C49.8051 126.264 50.0061 126.121 50.2673 125.984C50.5285 125.847 50.8452 125.76 51.2173 125.724C51.5895 125.689 52.0112 125.746 52.4825 125.897ZM51.9341 126.955C51.4417 126.797 50.9957 126.761 50.5961 126.846C50.1929 126.93 49.8562 127.097 49.5858 127.348C49.3118 127.598 49.1208 127.891 49.0125 128.229L48.6473 129.368C48.7203 129.322 48.855 129.301 49.0513 129.306C49.2429 129.313 49.461 129.334 49.7055 129.37C49.9454 129.408 50.1788 129.448 50.4059 129.49C50.6283 129.534 50.8092 129.569 50.9484 129.594C51.2855 129.655 51.61 129.684 51.9217 129.679C52.2289 129.677 52.4985 129.61 52.7306 129.479C52.958 129.35 53.1225 129.127 53.2239 128.811C53.3626 128.378 53.3074 128 53.0584 127.676C52.8047 127.354 52.43 127.114 51.9341 126.955Z" fill="#1F1E23"/>
<path d="M35.3213 127.833L35.8575 126.863L39.8714 129.083L39.3352 130.053L35.3213 127.833ZM42.2512 121.942L37.5646 130.415C37.3286 130.842 37.0318 131.142 36.6742 131.316C36.3165 131.489 35.9384 131.559 35.5398 131.524C35.1412 131.489 34.7641 131.373 34.4086 131.177C34.1275 131.021 33.9105 130.872 33.7578 130.728C33.6051 130.585 33.4958 130.469 33.43 130.382L34.3066 129.576C34.354 129.627 34.4214 129.696 34.5088 129.782C34.5929 129.867 34.7173 129.955 34.8821 130.046C35.2603 130.255 35.5861 130.311 35.8596 130.213C36.1299 130.114 36.3669 129.88 36.5707 129.511L41.1072 121.309L42.2512 121.942Z" fill="#1F1E23"/>
<path d="M26.195 121.356L26.8867 120.49L30.3315 123.243L29.6398 124.109L26.195 121.356ZM27.3632 124.899L26.3418 124.083L31.4048 117.747C31.6354 117.458 31.7664 117.209 31.798 116.997C31.8245 116.787 31.7909 116.604 31.6974 116.449C31.5987 116.295 31.4743 116.157 31.3243 116.037C31.2118 115.948 31.1148 115.879 31.0335 115.833C30.9498 115.79 30.8829 115.756 30.8327 115.73L31.3581 114.646C31.4481 114.676 31.5655 114.727 31.7103 114.8C31.8575 114.87 32.0262 114.982 32.2166 115.134C32.5052 115.364 32.7383 115.652 32.9162 115.998C33.0911 116.341 33.168 116.712 33.1469 117.111C33.1229 117.508 32.9564 117.9 32.6475 118.286L27.3632 124.899Z" fill="#1F1E23"/>
<path d="M24.8429 107.726C25.372 108.352 25.6903 109.009 25.7976 109.697C25.8997 110.384 25.8049 111.062 25.5129 111.729C25.2158 112.396 24.7344 113.011 24.0687 113.573C23.4029 114.136 22.7137 114.51 22.0009 114.697C21.283 114.883 20.5968 114.877 19.9424 114.681C19.2828 114.484 18.7051 114.092 18.2093 113.506C17.9233 113.167 17.6972 112.785 17.5311 112.36C17.3651 111.934 17.2946 111.479 17.3196 110.994C17.3419 110.511 17.4924 110.014 17.7712 109.502C18.05 108.991 18.4926 108.479 19.0991 107.967L19.5222 107.609L23.7557 112.619L22.8925 113.349L19.5172 109.354C19.1505 109.664 18.8852 110.014 18.7214 110.404C18.5553 110.791 18.5022 111.189 18.5622 111.597C18.6199 112.003 18.8012 112.386 19.1063 112.747C19.4424 113.145 19.832 113.406 20.275 113.53C20.7128 113.653 21.1538 113.66 21.598 113.55C22.0422 113.441 22.4434 113.235 22.8017 112.932L23.3772 112.446C23.868 112.031 24.2126 111.595 24.4109 111.137C24.604 110.679 24.6607 110.223 24.5809 109.768C24.4984 109.315 24.2867 108.887 23.9458 108.484C23.7241 108.222 23.4872 108.016 23.2351 107.866C22.9778 107.716 22.7088 107.627 22.4282 107.598C22.1448 107.571 21.8545 107.611 21.5573 107.717L21.0128 106.524C21.4259 106.349 21.8578 106.276 22.3087 106.306C22.7567 106.339 23.1988 106.473 23.635 106.709C24.0684 106.947 24.471 107.286 24.8429 107.726Z" fill="#1F1E23"/>
<path d="M19.2509 100.247L11.8106 104.376L11.1977 103.271L12.3215 102.648L12.2785 102.57C11.8351 102.639 11.4002 102.559 10.9738 102.331C10.5475 102.103 10.2106 101.767 9.96332 101.321C9.91673 101.237 9.86011 101.131 9.79345 101.003C9.7268 100.876 9.67878 100.778 9.6494 100.71L10.812 100.064C10.8238 100.109 10.8585 100.205 10.9162 100.355C10.9688 100.503 11.0373 100.653 11.1215 100.805C11.3222 101.167 11.5773 101.447 11.8868 101.647C12.1912 101.846 12.5215 101.954 12.8777 101.972C13.2289 101.988 13.5724 101.903 13.9082 101.717L18.6166 99.1041L19.2509 100.247Z" fill="#1F1E23"/>
<path d="M12.0426 80.3161C12.1571 81.0158 12.0813 81.6625 11.8154 82.2561C11.5458 82.8503 11.1114 83.3517 10.5121 83.7603C9.90916 84.1695 9.16303 84.4469 8.27371 84.5923C7.39167 84.7365 6.60154 84.7104 5.9033 84.514C5.20507 84.3176 4.63507 83.9786 4.19332 83.497C3.75156 83.0154 3.47287 82.421 3.35724 81.7139C3.26784 81.1672 3.28833 80.7204 3.41871 80.3735C3.54485 80.0236 3.70903 79.746 3.91123 79.5408C4.10919 79.3325 4.27332 79.1691 4.40361 79.0505L4.38573 78.9411L0.252578 79.617L0.0415834 78.3268L11.2383 76.4958L11.4421 77.7423L10.1519 77.9533L10.1769 78.1064C10.3455 78.1761 10.5607 78.2794 10.8226 78.4162C11.0808 78.5536 11.3276 78.7696 11.5628 79.0642C11.7945 79.3593 11.9544 79.7766 12.0426 80.3161ZM10.855 80.3306C10.7703 79.8131 10.564 79.3978 10.2358 79.0847C9.90408 78.7722 9.48244 78.5624 8.97094 78.4552C8.45579 78.3485 7.88112 78.3471 7.24693 78.4508C6.62003 78.5533 6.0864 78.7341 5.64603 78.9933C5.20201 79.253 4.878 79.5829 4.67398 79.983C4.46633 80.3837 4.40541 80.8465 4.49124 81.3713C4.58065 81.918 4.79547 82.3507 5.13572 82.6693C5.47173 82.9848 5.89337 83.1946 6.40063 83.2988C6.90366 83.3999 7.45039 83.4022 8.04084 83.3056C8.63858 83.2079 9.16675 83.0279 9.62535 82.7658C10.0797 82.5007 10.4213 82.1641 10.6503 81.7562C10.875 81.3453 10.9432 80.8701 10.855 80.3306Z" fill="#1F1E23"/>
<path d="M11.3032 66.4051C11.2496 67.2232 11.0228 67.9171 10.6228 68.4868C10.2193 69.0525 9.68093 69.4743 9.00764 69.7522C8.3309 70.0262 7.55767 70.1347 6.68795 70.0777C5.81823 70.0208 5.06207 69.8121 4.41948 69.4517C3.77344 69.0874 3.28303 68.6075 2.94823 68.0119C2.60999 67.4123 2.46597 66.7293 2.51617 65.9628C2.54514 65.5205 2.64745 65.0887 2.8231 64.6671C2.99875 64.2456 3.264 63.8688 3.61885 63.5368C3.97001 63.2045 4.42334 62.951 4.97883 62.7764C5.53432 62.6019 6.20824 62.5405 7.00057 62.5924L7.55336 62.6286L7.12468 69.1737L5.99698 69.0998L6.33877 63.8815C5.85969 63.8501 5.42592 63.9179 5.03747 64.0849C4.64926 64.2482 4.33498 64.4978 4.09461 64.8337C3.85449 65.1659 3.71899 65.5678 3.68809 66.0395C3.65406 66.5592 3.75359 67.0172 3.9867 67.4137C4.21636 67.8062 4.52909 68.1173 4.92488 68.3467C5.32067 68.5762 5.75258 68.7063 6.22061 68.7369L6.9724 68.7862C7.61364 68.8282 8.16446 68.7532 8.62486 68.5613C9.08182 68.3655 9.43941 68.0762 9.69766 67.6934C9.95221 67.3103 10.0967 66.8553 10.1313 66.3283C10.1537 65.9856 10.1261 65.6729 10.0484 65.3902C9.96721 65.1036 9.83561 64.8526 9.65356 64.6371C9.46783 64.4214 9.23118 64.2486 8.9436 64.1187L9.37994 62.8815C9.79874 63.0422 10.16 63.2898 10.4638 63.6242C10.7639 63.9585 10.9892 64.3619 11.1396 64.8343C11.2863 65.3066 11.3408 65.8302 11.3032 66.4051Z" fill="#1F1E23"/>
<path d="M1.79434 53.1356L12.8121 55.8424L12.5002 57.1121L1.48242 54.4053L1.79434 53.1356Z" fill="#1F1E23"/>
<path d="M14.6863 49.863L6.75584 46.7789L7.22971 45.5604L15.1602 48.6446L14.6863 49.863ZM5.67505 45.6453C5.58269 45.8828 5.42215 46.0561 5.19345 46.1653C4.96608 46.271 4.73881 46.2797 4.51163 46.1914C4.28446 46.103 4.12278 45.9431 4.0266 45.7115C3.93175 45.4765 3.93051 45.2402 4.02288 45.0027C4.11524 44.7652 4.27511 44.5936 4.50248 44.4879C4.73118 44.3787 4.95912 44.3683 5.1863 44.4566C5.41347 44.545 5.57448 44.7066 5.66933 44.9416C5.76551 45.1732 5.76742 45.4078 5.67505 45.6453Z" fill="#1F1E23"/>
<path d="M14.0185 32.6112L19.6536 39.7211L18.9628 40.8571L10.0576 39.124L10.7945 37.9123L17.8084 39.4288L17.8545 39.3531L13.2816 33.8229L14.0185 32.6112Z" fill="#1F1E23"/>
<path d="M27.5178 29.8847C26.9486 30.4748 26.3274 30.8581 25.6541 31.0348C24.9807 31.2063 24.2972 31.1807 23.6037 30.9581C22.91 30.7303 22.2495 30.3138 21.6223 29.7087C20.995 29.1036 20.5523 28.456 20.2944 27.7658C20.0364 27.0705 19.9718 26.3873 20.1008 25.7164C20.2297 25.0402 20.5608 24.4257 21.0941 23.8728C21.4018 23.5538 21.7588 23.2901 22.1651 23.0817C22.5714 22.8733 23.0173 22.7569 23.5026 22.7325C23.9854 22.7055 24.4951 22.8047 25.032 23.0301C25.5689 23.2555 26.1231 23.6439 26.6946 24.1951L27.0933 24.5797L22.5395 29.3004L21.7262 28.5158L25.3569 24.752C25.0113 24.4187 24.6363 24.1904 24.2319 24.0671C23.83 23.9411 23.4288 23.9287 23.0284 24.03C22.6306 24.1285 22.2676 24.3479 21.9394 24.6882C21.5778 25.063 21.358 25.477 21.28 25.9302C21.2019 26.3783 21.2398 26.8177 21.3938 27.2485C21.5479 27.6793 21.7937 28.0575 22.1312 28.3831L22.6735 28.9062C23.136 29.3524 23.6049 29.6508 24.0804 29.8016C24.5558 29.9471 25.0156 29.9571 25.46 29.8316C25.9017 29.7035 26.3059 29.4494 26.6726 29.0693C26.911 28.8221 27.0919 28.5655 27.2151 28.2995C27.3382 28.0283 27.3998 27.7516 27.3999 27.4695C27.3974 27.1849 27.3283 26.9001 27.1926 26.6152L28.3247 25.9523C28.5407 26.3455 28.6567 26.7678 28.6726 27.2194C28.6859 27.6684 28.5975 28.1218 28.4072 28.5797C28.2143 29.035 27.9178 29.47 27.5178 29.8847Z" fill="#1F1E23"/>
<path d="M34.3895 23.5601L29.5262 16.5778L30.5626 15.8559L31.2972 16.9106L31.3699 16.8599C31.2566 16.4258 31.2916 15.985 31.4751 15.5377C31.6586 15.0903 31.9594 14.721 32.3777 14.4297C32.4564 14.3748 32.556 14.3077 32.6763 14.2284C32.7966 14.1491 32.8892 14.0914 32.954 14.0553L33.7139 15.1462C33.6712 15.1625 33.5784 15.2069 33.4354 15.2795C33.2933 15.3469 33.1511 15.4302 33.0086 15.5294C32.6692 15.7659 32.4158 16.0482 32.2483 16.3763C32.0818 16.6994 32.0077 17.039 32.0263 17.3951C32.0457 17.7462 32.1652 18.0792 32.3847 18.3944L35.4623 22.8129L34.3895 23.5601Z" fill="#1F1E23"/>
<path d="M44.7294 20.8952C44.5265 20.9842 44.3381 21.0467 44.1643 21.0826C43.992 21.1219 43.8687 21.1397 43.7945 21.1359L43.636 19.9472C43.9595 19.894 44.2284 19.8083 44.4427 19.6901C44.657 19.5719 44.8111 19.3853 44.905 19.1304C45.0037 18.8774 45.039 18.5212 45.0108 18.0617L44.967 17.355L38.6494 10.7861L39.9481 10.2164L44.823 15.4823L44.9042 15.4467L44.3313 8.29366L45.63 7.72396L46.2391 18.1036C46.2668 18.5713 46.2286 18.9853 46.1245 19.3456C46.0219 19.7092 45.8533 20.019 45.6189 20.2752C45.3878 20.5298 45.0913 20.7365 44.7294 20.8952Z" fill="#1F1E23"/>
</svg>
