<svg width="68" height="76" viewBox="0 0 68 76" fill="none" xmlns="http://www.w3.org/2000/svg">
<g clip-path="url(#clip0_958_280)">
<path d="M30.6746 76.0002C30.2242 75.6991 29.6936 75.787 29.2061 75.7363C25.5393 75.3548 21.984 74.4963 18.4985 73.3144C17.6929 73.0416 17.354 72.4589 17.5918 71.8046C17.84 71.1264 18.4049 70.8939 19.2387 71.1771C22.2069 72.1846 25.2331 72.9314 28.3425 73.3517C35.7816 74.3562 42.977 73.3531 49.9762 70.7285C52.3989 69.8208 54.7295 68.7149 56.9709 67.4168C57.3871 67.1753 57.4554 67.0322 57.1507 66.6209C50.7535 57.9481 45.7238 48.4928 41.2692 38.7066C41.2187 38.5948 41.1637 38.483 41.1206 38.3683C40.856 37.6618 41.0596 37.0791 41.6631 36.8093C42.2725 36.5365 42.8403 36.7631 43.1702 37.4591C43.952 39.106 44.6908 40.7738 45.4874 42.4133C49.1825 50.01 53.261 57.3832 58.1897 64.26C58.536 64.7429 58.7723 64.813 59.2911 64.5209C61.1386 63.4835 62.9593 62.4044 64.7117 61.2091C65.067 60.9677 65.1027 60.8261 64.798 60.5027C56.7465 51.961 50.1471 42.3552 44.2612 32.2322C44.0056 31.794 43.7157 31.7016 43.2579 31.7031C37.0911 31.7165 30.9243 31.718 24.7575 31.6986C24.2417 31.6971 23.9727 31.8685 23.7215 32.3037C18.9087 40.6308 13.5356 48.5733 7.32419 55.9285C6.0504 57.4368 4.7127 58.8945 3.3735 60.3462C3.00192 60.7486 2.89342 60.9408 3.44039 61.303C5.18832 62.4596 6.98085 63.5327 8.80905 64.5551C9.28468 64.8204 9.49574 64.7355 9.79895 64.3122C13.8923 58.6083 17.3882 52.5453 20.5987 46.3108C22.0657 43.4626 23.4525 40.5741 24.7589 37.6484C25.138 36.8018 25.7132 36.5112 26.3701 36.8153C27.0271 37.1193 27.1965 37.7423 26.8116 38.5889C22.3332 48.4168 17.2946 57.9257 10.8632 66.6358C10.5971 66.9965 10.5793 67.1589 10.9999 67.3959C12.2024 68.0711 13.4182 68.7179 14.6593 69.3171C15.502 69.724 15.7844 70.2948 15.4842 70.9416C15.1795 71.5974 14.5359 71.7599 13.7125 71.3694C11.9318 70.5243 10.1943 69.6003 8.54745 68.5107C7.96183 68.1232 7.55606 67.6776 7.86968 66.9204C8.04804 66.4897 7.64376 66.4852 7.45351 66.3824C5.32804 65.2318 3.26797 63.9769 1.31344 62.5505C-0.379501 61.3149 -0.401796 61.0169 1.02955 59.5339C7.74631 52.5736 13.3617 44.7682 18.5089 36.6051C19.6786 34.7495 20.7696 32.8433 21.9111 30.9683C22.1772 30.5316 22.2619 30.0845 22.2946 29.5747C22.6662 23.856 21.3389 18.3816 19.9165 12.9281C19.64 11.8684 19.7753 10.9936 20.3401 10.1306C20.569 9.78035 20.7785 9.36004 21.1085 9.14691C22.0375 8.54776 22.2188 7.65499 22.3882 6.65939C22.797 4.25681 23.8642 2.17319 25.6701 0.5054C26.498 -0.25919 27.2174 -0.15337 27.7539 0.837766C28.9118 2.97653 29.8036 5.21367 30.086 7.6535C30.1276 8.01121 30.2792 8.16025 30.5958 8.26309C31.6481 8.60738 32.6678 9.0396 33.6577 9.53741C33.9014 9.65962 34.0887 9.679 34.3429 9.54933C35.3521 9.03513 36.4 8.60589 37.4716 8.24371C37.7718 8.14236 37.8908 8.00077 37.9279 7.68033C38.2178 5.21665 39.1125 2.95567 40.2912 0.799015C40.8069 -0.145917 41.5293 -0.248757 42.329 0.486025C44.3667 2.35502 45.4131 4.72779 45.7713 7.43143C45.8427 7.97245 45.9809 8.37934 46.4595 8.72214C47.3216 9.34216 47.8358 10.2513 48.2208 11.2335C48.3546 11.5748 48.3427 11.9132 48.2609 12.253C47.9666 13.4751 47.6679 14.6973 47.3602 15.9179C47.1477 16.76 46.62 17.1714 45.9705 17.0253C45.2645 16.8659 44.9613 16.2727 45.1649 15.4022C45.3997 14.3932 45.6361 13.3842 45.9081 12.3856C46.0299 11.9415 45.9541 11.5808 45.7044 11.2097C45.0311 10.2111 44.0695 9.7416 42.9027 9.65217C40.4889 9.46885 38.2252 10.141 36.1562 11.241C34.6193 12.0577 33.4035 12.0622 31.8681 11.2425C29.8244 10.15 27.5815 9.49418 25.1959 9.64621C24.4676 9.69241 23.7869 9.88617 23.1864 10.308C22.192 11.0055 21.9542 11.6508 22.2426 12.8238C23.1314 16.4441 24.0098 20.0658 24.4424 23.777C24.4959 24.242 24.7471 24.1898 25.0428 24.1883C26.5232 24.1868 28.0036 24.1883 29.4825 24.1883C33.9475 24.1883 38.4125 24.1824 42.8774 24.1988C43.3471 24.2003 43.5478 24.1332 43.6028 23.5892C43.7157 22.4609 43.9312 21.3416 44.1349 20.2253C44.2686 19.4935 44.8126 19.0896 45.4265 19.2014C46.0924 19.3236 46.51 19.9004 46.3346 20.6515C45.6361 23.6488 45.7401 26.6923 45.7416 29.7312C45.7416 30.0845 45.7847 30.4034 45.969 30.7194C51.522 40.288 57.723 49.39 65.1651 57.6008C65.9276 58.4429 66.7361 59.2432 67.5135 60.0704C68.2091 60.8097 68.1615 61.4446 67.3545 62.0661C65.2424 63.6967 62.9742 65.0857 60.6303 66.3511C60.3047 66.527 60.0134 66.6194 60.2141 67.1604C60.4489 67.7938 59.9629 68.2037 59.462 68.5301C56.8951 70.2054 54.1632 71.5497 51.3139 72.6646C46.8118 74.4263 42.1625 75.5366 37.3334 75.866C37.216 75.8735 37.0822 75.8437 37.0376 76.0046C34.9166 76.0002 32.7956 76.0002 30.6746 76.0002ZM34.0263 29.4332C36.9573 29.4332 39.8884 29.4212 42.8209 29.4436C43.3144 29.4481 43.5359 29.3571 43.4883 28.8072C43.4378 28.2185 43.4422 27.6193 43.4868 27.0306C43.524 26.5328 43.3486 26.4225 42.873 26.424C36.9603 26.4404 31.0491 26.4389 25.1365 26.4255C24.7069 26.424 24.5122 26.494 24.5479 26.9814C24.594 27.5955 24.591 28.2185 24.5494 28.8325C24.5167 29.3199 24.6757 29.4481 25.1588 29.4436C28.1151 29.4227 31.0714 29.4332 34.0263 29.4332ZM26.3553 3.08384C25.4278 4.27768 24.921 5.54305 24.6237 6.89934C24.5791 7.10502 24.377 7.49104 24.9061 7.4046C25.7162 7.27344 26.5232 7.36287 27.3244 7.45677C27.7108 7.50148 27.8015 7.39864 27.7242 7.03348C27.4403 5.68613 26.9899 4.40138 26.3553 3.08384ZM43.4913 7.44633C43.2356 5.80388 42.6664 4.38946 41.6765 3.08235C41.0403 4.36561 40.6033 5.6608 40.3001 7.00517C40.208 7.41354 40.3432 7.50595 40.7475 7.45229C41.6215 7.33455 42.5043 7.28686 43.4913 7.44633Z" fill="#FE7855"/>
</g>
<defs>
<clipPath id="clip0_958_280">
<rect width="68" height="76" fill="white"/>
</clipPath>
</defs>
</svg>
