<svg width="65" height="76" viewBox="0 0 65 76" fill="none" xmlns="http://www.w3.org/2000/svg">
<g clip-path="url(#clip0_958_289)">
<path d="M53.6909 28.3686C53.9038 30.6631 54.1105 32.8056 54.2984 34.9503C54.9289 42.1695 55.1669 49.3908 54.6032 56.629C54.1314 62.6893 53.2796 68.7011 52.4738 74.7192C52.3214 75.8549 52.1564 75.9963 51.0353 75.9963C46.8182 75.9984 42.6032 75.9984 38.3861 75.9963C37.1752 75.9963 37.0291 75.838 36.8788 74.6158C36.5239 71.7197 36.098 68.8341 35.5593 65.9675C35.3109 64.6461 34.5468 63.6202 33.6199 62.7231C32.9289 62.054 32.1397 62.0286 31.4508 62.683C30.4988 63.5907 29.7097 64.6334 29.4591 65.9844C28.9247 68.8784 28.4946 71.7893 28.1335 74.7108C27.9957 75.8274 27.8328 75.9942 26.7055 75.9942C22.4362 75.9963 18.1689 75.9963 13.8996 75.9942C12.8975 75.9942 12.693 75.838 12.5593 74.8733C11.3735 66.2757 10.1627 57.6823 10.0938 48.975C10.0562 44.2614 10.3109 39.5583 10.7264 34.8659C10.9143 32.7486 11.1147 30.6314 11.3193 28.3855C10.67 28.7148 10.1168 28.9807 9.57813 29.2741C9.03951 29.5676 8.60945 29.5106 8.21696 29.0018C5.56978 25.5949 2.91425 22.1858 0.248279 18.7831C-0.188046 18.2258 0.0102834 17.7931 0.377716 17.3097C3.78481 12.841 7.75976 8.9654 12.2253 5.59222C14.6637 3.75153 17.2232 2.09872 19.814 0.483897C20.6408 -0.0311573 21.265 -0.0163811 22.0854 0.464899C24.409 1.82853 26.8683 2.86919 29.528 3.37158C33.5531 4.13149 37.3234 3.27659 40.9456 1.51823C41.8099 1.09816 42.6596 0.644323 43.4988 0.171487C43.9101 -0.0607096 44.2566 -0.0543769 44.6596 0.182041C52.3548 4.70143 59.242 10.177 64.6846 17.3836C65.1001 17.9345 65.1126 18.3778 64.6825 18.9245C62.075 22.2365 59.4758 25.5569 56.8996 28.8963C56.4153 29.5232 55.9393 29.5971 55.2963 29.2087C54.8307 28.928 54.3339 28.7042 53.6909 28.3686ZM39.6178 6.74265C39.4236 6.81442 39.2253 6.87563 39.0332 6.95584C34.7138 8.75853 30.3923 8.76909 26.0646 6.97695C25.7911 6.86297 25.5343 6.65399 25.194 6.73842C29.2921 12.0156 35.5343 12.1 39.7243 6.88196C39.7952 6.85452 39.8767 6.81442 39.8161 6.73209C39.7932 6.70465 39.6867 6.73842 39.6178 6.74265ZM17.4111 3.84019C16.2879 4.62122 15.2295 5.33047 14.2003 6.07983C10.4278 8.82397 6.956 11.9101 3.89546 15.4585C3.66582 15.7244 3.46957 15.8996 3.77438 16.2965C6.27959 19.5578 8.76394 22.8339 11.2358 26.1205C11.5531 26.5427 11.6992 26.4223 11.8307 26.0297C12.3735 24.417 13.0562 22.8529 13.4612 21.1916C13.8245 19.7034 13.9602 18.1857 14.0625 16.6617C14.1001 16.1044 14.3443 15.7075 14.9017 15.7434C15.457 15.7793 15.6783 16.2036 15.6282 16.7588C15.6157 16.8896 15.6115 17.0205 15.6032 17.1535C15.4508 19.8786 14.8704 22.5025 13.8495 25.0355C13.5197 25.8566 13.0896 26.6588 12.9957 27.558C12.6178 31.2204 12.3005 34.8891 11.9915 38.5599C11.0875 49.2536 12.0332 59.846 13.5322 70.4172C13.6053 70.9386 13.8036 71.0231 14.265 71.021C18.2733 71.0083 22.2817 71.002 26.29 71.04C26.9351 71.0463 27.1168 70.8268 27.1919 70.2273C27.5259 67.5676 27.9685 64.9247 28.6115 62.322C29.1147 60.285 29.622 58.2354 30.8161 56.4686C31.8621 54.9213 33.1147 54.9234 34.1836 56.439C34.9623 57.543 35.4007 58.8095 35.7932 60.0908C36.8078 63.388 37.361 66.7823 37.8245 70.1935C37.908 70.8099 38.075 71.0547 38.7723 71.0442C42.7535 70.9956 46.7368 70.9977 50.7201 71.0294C51.3088 71.0336 51.4654 70.8373 51.5259 70.3054C51.7472 68.3465 51.9998 66.3897 52.2441 64.435C52.9477 58.818 53.4049 53.1819 53.3819 47.5163C53.361 42.2476 52.9038 37.0063 52.4738 31.7608C52.2378 28.89 51.7556 26.1099 50.6199 23.4418C49.7264 21.3415 49.5468 19.0681 49.3882 16.8073C49.3464 16.2247 49.5406 15.7688 50.1502 15.7498C50.7138 15.7308 50.933 16.1508 50.9581 16.7018C50.9852 17.3055 51.0479 17.9092 51.1063 18.5108C51.3735 21.3098 52.2984 23.9041 53.4904 26.4878C53.6303 26.3189 53.718 26.2239 53.7952 26.1205C56.2295 22.9056 58.6533 19.6802 61.1105 16.4822C61.4508 16.0389 61.4424 15.8025 61.075 15.3846C58.1084 12.003 54.7953 9.01606 51.1877 6.35425C50.0186 5.4909 48.8495 4.62755 47.5886 3.87396C44.7013 12.2499 38.3694 15.9418 32.4153 15.9207C26.1251 15.8912 20.0395 11.8594 17.4111 3.84019ZM31.6825 14.3566C33.9456 14.3502 35.455 14.1075 36.9059 13.5566C41.3172 11.8826 44.0604 8.57278 45.7765 4.2687C46.2817 3.00428 46.2462 3.02961 45.098 2.2507C44.5844 1.90241 44.4299 1.96784 44.1836 2.53356C42.9727 5.30936 41.3088 7.7622 38.9706 9.71054C34.5134 13.4257 29.3464 13.2315 25.2044 9.16593C23.4696 7.46245 22.171 5.43601 21.1314 3.2407C20.4737 1.85174 20.5009 1.85597 19.1856 2.71087C18.86 2.92196 18.7953 3.10772 18.9226 3.46445C19.2483 4.37846 19.576 5.29036 20.0249 6.1516C22.647 11.2008 26.6616 14.1096 31.6825 14.3566ZM42.4195 2.52723C35.7681 6.06505 29.2378 6.05872 22.6115 2.53778C22.9685 3.65232 23.3965 4.3278 24.3255 4.60011C24.9706 4.78797 25.576 5.10672 26.2065 5.35158C28.7514 6.35002 31.3485 7.06561 34.1168 6.6751C36.48 6.34158 38.6575 5.41279 40.8558 4.52834C41.7076 4.18426 42.0729 3.58477 42.4195 2.52723ZM20.3234 72.5788C18.4758 72.5788 16.6282 72.5788 14.7806 72.5788C13.814 72.5788 13.812 72.5788 13.9414 73.535C13.9623 73.6912 14.0165 73.8453 14.0228 74.0015C14.0353 74.3392 14.1982 74.4279 14.5197 74.4258C18.3965 74.4152 22.2754 74.4152 26.1522 74.4258C26.4842 74.4258 26.6282 74.3118 26.6554 73.9931C26.6763 73.7313 26.6825 73.4611 26.7535 73.212C26.9142 72.6548 26.6804 72.5619 26.1815 72.5682C24.2274 72.5936 22.2754 72.5788 20.3234 72.5788ZM44.7702 72.5788C42.9226 72.5788 41.075 72.5788 39.2274 72.5788C38.1836 72.5788 38.1836 72.5788 38.3046 73.6047C38.3193 73.7355 38.3527 73.8643 38.3631 73.9952C38.3861 74.316 38.5364 74.4279 38.8662 74.4258C42.7431 74.4152 46.622 74.4152 50.4988 74.4258C50.8224 74.4258 50.9748 74.335 50.9957 73.9994C51.0124 73.7123 51.0479 73.421 51.1188 73.1424C51.2358 72.6843 51.0813 72.564 50.6261 72.5682C48.6742 72.5914 46.7222 72.5788 44.7702 72.5788ZM63.2817 18.1245C63.0562 17.8395 62.8788 17.4786 62.5886 17.297C62.3652 17.1556 62.2462 17.5356 62.1168 17.7065C59.8495 20.6829 57.5886 23.6634 55.3443 26.6567C55.2107 26.834 54.6867 27.0429 55.2003 27.3722C55.5406 27.5897 55.8245 27.8008 56.2149 27.2878C58.4299 24.3706 60.695 21.4913 62.9414 18.5994C63.052 18.4559 63.1543 18.3039 63.2817 18.1245ZM10.0479 27.1358C9.94139 26.9923 9.83492 26.8445 9.72427 26.6989C7.4487 23.6951 5.17521 20.6913 2.88502 17.6981C2.75976 17.5334 2.66582 17.0015 2.313 17.4152C2.07918 17.6897 1.51133 17.9282 1.98732 18.4918C2.57605 19.1905 3.11884 19.9314 3.68043 20.6533C5.41738 22.8824 7.15433 25.1115 8.89755 27.3364C9.02699 27.501 9.10841 27.8113 9.42782 27.5897C9.6345 27.4503 9.92678 27.4271 10.0479 27.1358ZM30.5239 61.142C30.5823 61.1589 30.6429 61.199 30.6783 61.1822C31.8245 60.6587 32.9539 60.3885 34.1397 61.1378C34.4445 61.3299 34.4174 60.95 34.3631 60.7705C34.0207 59.6454 33.6679 58.5246 33.1105 57.4839C32.979 57.239 32.86 56.9203 32.5301 56.9076C32.1481 56.8929 32.0332 57.2517 31.8913 57.5156C31.2733 58.6597 30.9351 59.9135 30.5239 61.142Z" fill="#1F1E23"/>
</g>
<defs>
<clipPath id="clip0_958_289">
<rect width="65" height="76" fill="white"/>
</clipPath>
</defs>
</svg>
