<svg width="73" height="73" viewBox="0 0 73 73" fill="none" xmlns="http://www.w3.org/2000/svg">
<g clip-path="url(#clip0_958_298)">
<path d="M3.2704 41.3647C2.51877 41.3647 1.91137 41.381 1.30396 41.3607C0.495448 41.3363 0.024153 40.883 0.0139958 40.0822C-0.00631868 38.5112 -0.00428723 36.9401 0.0139958 35.369C0.024153 34.5296 0.49748 34.0784 1.35881 34.0702C2.87833 34.056 4.39786 34.0723 5.91738 34.0621C6.25866 34.0601 6.56338 34.1596 6.87013 34.2816C8.6517 34.993 10.4333 35.7064 12.2128 36.4218C13.2407 36.8364 13.4276 37.0539 13.3667 38.186C13.3301 38.8506 13.5536 39.0213 14.161 38.94C14.5104 38.8933 14.874 38.8933 15.2234 38.94C15.8613 39.0274 16.0238 38.8282 15.9487 38.1697C15.4835 34.119 15.0629 30.0622 14.6302 26.0095C14.5084 24.8632 14.9715 24.3368 16.1112 24.3327C18.1121 24.3266 20.1131 24.3327 22.1141 24.3307C23.1115 24.3307 23.1237 24.3286 23.1095 23.3002C23.0689 20.3816 23.1461 17.4874 24.0013 14.65C26.825 5.2885 36.0884 -0.916609 45.7886 0.109785C55.3871 1.12398 62.8832 8.31484 64.2625 17.841C64.5327 19.7048 64.4697 21.5848 64.4393 23.4587C64.4291 24.1274 64.6526 24.351 65.3067 24.3428C67.3077 24.3164 69.3086 24.3327 71.3096 24.3347C72.6463 24.3368 73.0628 24.8408 72.9205 26.17C72.2644 32.3142 71.6285 38.4603 70.9643 44.6045C70.9155 45.0638 70.9826 45.389 71.3929 45.6105C72.7093 46.3219 73.014 47.4194 72.9998 48.8889C72.9246 56.3399 72.9652 63.793 72.9652 71.244C72.9652 72.6464 72.6158 72.998 71.2263 72.998C49.7458 72.998 28.2653 73 6.78277 72.996C3.61372 72.996 1.19833 71.1281 0.534046 68.1831C0.324807 67.2522 0.416222 66.3132 0.489354 65.3803C1.02159 58.4598 1.57211 51.5392 2.09826 44.6167C2.18764 43.4582 2.58987 42.4257 3.2704 41.3647ZM23.075 60.8317C29.4578 60.8317 35.8406 60.8235 42.2234 60.8439C42.78 60.8459 42.9811 60.7463 42.8897 60.1488C42.78 59.4252 42.7719 58.6854 42.715 57.9537C42.3676 53.5087 42.0385 49.0617 41.6647 44.6187C41.5124 42.8179 40.0213 41.4034 38.2275 41.381C34.961 41.3403 31.6924 41.3729 28.4258 41.3566C28.05 41.3546 27.9606 41.4765 27.9687 41.8302C27.9911 42.8444 27.987 43.8586 27.9728 44.8707C27.9586 45.761 27.4995 46.2223 26.6036 46.2264C24.2735 46.2386 21.9435 46.2386 19.6134 46.2264C18.7195 46.2223 18.2645 45.7589 18.2523 44.8626C18.2381 43.8748 18.2279 42.885 18.2584 41.8972C18.2726 41.4684 18.1467 41.3505 17.716 41.3525C14.5246 41.3708 11.3332 41.3464 8.14181 41.3688C6.22209 41.383 4.70867 42.7692 4.55021 44.6959C4.12767 49.8462 3.75592 55.0005 3.32931 60.1508C3.27853 60.7605 3.45933 60.8398 4.00375 60.8378C10.3601 60.8256 16.7186 60.8317 23.075 60.8317ZM68.6423 43.3891C69.2233 37.9116 69.7881 32.556 70.3691 27.2025C70.4137 26.7818 70.2411 26.7574 69.912 26.7615C68.6972 26.7757 67.4783 26.796 66.2655 26.7534C65.7414 26.7351 65.6541 26.918 65.6581 27.3895C65.6805 29.8996 65.6703 32.4077 65.6683 34.9178C65.6663 36.1007 65.26 36.499 64.0634 36.499C61.8857 36.501 59.706 36.501 57.5283 36.499C56.344 36.497 55.9438 36.0946 55.9438 34.8974C55.9417 32.3873 55.9275 29.8793 55.956 27.3692C55.962 26.8611 55.8117 26.7534 55.3282 26.7554C47.627 26.7696 39.9278 26.7716 32.2266 26.7534C31.7147 26.7513 31.6111 26.9038 31.6152 27.3834C31.6395 29.9179 31.6294 32.4524 31.6253 34.9869C31.6233 36.0722 31.1947 36.4949 30.1017 36.497C27.8976 36.501 25.6935 36.501 23.4894 36.497C22.301 36.4949 21.9008 36.0925 21.8988 34.9015C21.8967 32.3914 21.8825 29.8833 21.9109 27.3733C21.917 26.8753 21.783 26.7371 21.2873 26.7534C20.1233 26.792 18.9572 26.7879 17.7932 26.7554C17.3118 26.7412 17.1492 26.8387 17.2102 27.3672C17.6165 30.9402 18.0228 34.5133 18.3478 38.0945C18.4169 38.8607 18.681 38.9481 19.3452 38.9461C25.5513 38.9217 31.7574 38.9197 37.9634 38.9359C41.2686 38.9441 43.8262 41.2916 44.1126 44.5557C44.2934 46.6247 44.4397 48.6979 44.5981 50.7689C44.9983 55.9985 45.4006 61.226 45.7967 66.4555C45.8718 67.4555 45.7357 68.427 45.3112 69.3436C45.1263 69.744 44.913 70.1302 44.6895 70.5631C46.6133 70.5631 48.4619 70.5347 50.3085 70.5794C50.92 70.5936 51.1008 70.4676 51.0988 69.8131C51.0703 62.4881 51.0866 55.1631 51.0723 47.8381C51.0703 47.1735 51.2714 46.6918 51.8037 46.2752C53.6787 44.8077 55.5314 43.3139 57.38 41.8139C57.7761 41.4928 58.1905 41.3505 58.7004 41.3546C60.8781 41.3708 63.0579 41.3769 65.2356 41.3525C65.8267 41.3464 66.3123 41.4907 66.7612 41.881C67.3402 42.3891 67.9618 42.8505 68.6423 43.3891ZM43.7876 24.3327C45.7114 24.3327 47.6351 24.3327 49.561 24.3327C51.8138 24.3327 54.0667 24.3327 56.3216 24.3327C56.734 24.3327 57.1748 24.3652 57.1565 23.7494C57.1098 22.1559 57.2398 20.5604 57.0367 18.969C56.2424 12.7497 51.3568 8.03843 44.9516 7.34536C39.0482 6.70513 33.1692 10.5221 31.152 16.2516C30.3496 18.532 30.3902 20.8755 30.4065 23.2311C30.4125 24.3347 30.4085 24.3368 31.4852 24.3368C35.5846 24.3327 39.6861 24.3327 43.7876 24.3327ZM70.5316 59.3134C70.5316 55.7424 70.5275 52.1713 70.5377 48.6023C70.5397 48.2202 70.4584 47.954 70.1334 47.704C68.5956 46.5089 67.0781 45.2874 65.5667 44.0598C65.3331 43.8687 65.1076 43.7956 64.8151 43.7976C62.9685 43.8057 61.1199 43.8098 59.2733 43.7956C58.9198 43.7915 58.6578 43.9033 58.3896 44.1228C56.9189 45.3199 55.444 46.515 53.9448 47.6776C53.6035 47.9438 53.4999 48.2182 53.4999 48.6308C53.5101 55.7221 53.5121 62.8113 53.4959 69.9026C53.4938 70.4046 53.5751 70.5855 54.1358 70.5814C59.3992 70.557 64.6648 70.559 69.9282 70.5794C70.4361 70.5814 70.5438 70.4351 70.5417 69.9513C70.5234 66.4047 70.5316 62.8601 70.5316 59.3134ZM23.1867 63.2666C18.4514 63.2666 13.7141 63.2666 8.97877 63.2666C7.20531 63.2666 5.43389 63.2808 3.66044 63.2564C3.20946 63.2503 3.04694 63.358 3.03679 63.8357C3.01647 64.7706 2.90271 65.7055 2.85396 66.6405C2.74223 68.864 4.3166 70.559 6.54306 70.5611C17.584 70.5712 28.6269 70.5712 39.6678 70.5611C41.8963 70.559 43.4646 68.8741 43.359 66.6425C43.3183 65.7563 43.1863 64.8742 43.1883 63.9901C43.1883 63.3844 42.9852 63.2523 42.4062 63.2544C36.0011 63.2747 29.5939 63.2666 23.1867 63.2666ZM62.0218 22.4831C62.2697 14.8512 59.5374 8.84328 53.0307 5.01006C46.656 1.25406 40.0761 1.41666 33.866 5.42061C27.8042 9.32701 25.2649 15.1744 25.5533 22.4161C26.0023 22.2027 26.3232 21.8937 26.7783 21.8937C27.2293 21.8937 27.5279 22.2657 27.9545 22.3531C27.2496 12.7964 34.2235 5.60353 42.4306 4.92266C46.1095 4.61779 49.5345 5.45313 52.5777 7.55673C57.7335 11.1217 59.8766 16.1845 59.5821 22.5279C60.4434 21.725 61.1768 21.7759 62.0218 22.4831ZM24.3263 30.0358C24.3263 31.2004 24.3446 32.365 24.3162 33.5296C24.306 33.9564 24.4218 34.0865 24.8565 34.0763C26.0957 34.0479 27.3369 34.0418 28.5761 34.0784C29.0657 34.0926 29.2079 33.9666 29.2018 33.4625C29.1734 31.2349 29.1774 29.0053 29.1998 26.7777C29.2038 26.3469 29.084 26.0786 28.7061 25.8692C28.0256 25.4932 27.4324 24.6721 26.7275 24.7168C26.0693 24.7595 25.47 25.4892 24.8159 25.8652C24.4076 26.1009 24.2999 26.3936 24.3141 26.8448C24.3507 27.9078 24.3263 28.9728 24.3263 30.0358ZM58.3734 30.0337C58.3734 31.1984 58.3917 32.365 58.3632 33.5276C58.3531 33.9523 58.4668 34.0844 58.9015 34.0743C60.1407 34.0438 61.3819 34.0397 62.6211 34.0763C63.1087 34.0905 63.2549 33.9666 63.2468 33.4605C63.2163 31.2329 63.2224 29.0033 63.2448 26.7757C63.2488 26.3448 63.131 26.0765 62.7511 25.8672C62.0706 25.4912 61.4774 24.6701 60.7725 24.7148C60.1143 24.7575 59.4988 25.4607 58.865 25.8733C58.8447 25.8875 58.8264 25.9099 58.804 25.918C58.4018 26.0704 58.3531 26.3794 58.3612 26.7676C58.3876 27.857 58.3734 28.9464 58.3734 30.0337ZM6.61416 38.9319C7.80053 38.9319 8.98892 38.9502 10.1733 38.9176C10.4231 38.9115 10.8497 39.1636 10.9229 38.7266C10.9818 38.3729 10.5511 38.3953 10.3195 38.2977C9.32005 37.8831 8.29417 37.5274 7.31501 37.0742C6.35414 36.6291 5.37701 36.4584 4.32066 36.4828C2.33594 36.5315 2.34813 36.497 2.42735 38.4827C2.44157 38.8546 2.54924 38.9441 2.90271 38.938C4.13986 38.9197 5.37701 38.9319 6.61416 38.9319ZM23.0526 43.7996C23.2558 43.7996 23.4569 43.7996 23.66 43.7996C25.6549 43.7996 25.6549 43.7996 25.5432 41.8058C25.5411 41.755 25.5391 41.7042 25.5432 41.6533C25.5655 41.4094 25.4294 41.3627 25.2202 41.3647C23.8022 41.3688 22.3863 41.3688 20.9684 41.3668C20.7957 41.3668 20.6758 41.4074 20.6819 41.6127C20.6982 42.3159 20.5296 43.1045 20.7977 43.6919C20.9521 44.0313 21.8236 43.761 22.3701 43.7956C22.5955 43.8118 22.8251 43.7996 23.0526 43.7996Z" fill="#1F1E23"/>
<path d="M43.8587 29.2005C44.9963 29.2005 46.1339 29.1904 47.2715 29.2026C48.1674 29.2127 48.6326 29.666 48.6407 30.5542C48.655 32.0968 48.657 33.6415 48.6387 35.1841C48.6285 36.0255 48.1572 36.4889 47.3061 36.495C44.9537 36.5072 42.6033 36.5093 40.2509 36.495C39.4017 36.491 38.9325 36.0235 38.9223 35.1821C38.906 33.613 38.904 32.0439 38.9243 30.4769C38.9345 29.6782 39.4058 29.2209 40.2163 29.2066C41.4311 29.1863 42.6439 29.2005 43.8587 29.2005ZM43.7449 34.0663C43.9481 34.0663 44.1492 34.0663 44.3524 34.0663C46.3411 34.0663 46.331 34.0663 46.2233 32.05C46.205 31.7188 46.1238 31.6192 45.7926 31.6273C44.9333 31.6497 44.072 31.6354 43.2107 31.6354C41.2199 31.6354 41.23 31.6354 41.3397 33.6516C41.358 33.9829 41.4393 34.0866 41.7704 34.0744C42.4286 34.05 43.0868 34.0663 43.7449 34.0663Z" fill="#1F1E23"/>
<path d="M65.6643 56.9843C65.6622 57.8034 65.2133 58.3318 64.5571 58.3928C63.903 58.4517 63.3322 58.0127 63.255 57.2932C63.1859 56.6408 62.9279 56.1774 62.286 56.0006C61.6339 55.8217 60.9391 56.3075 60.8213 56.9863C60.6974 57.7119 61.2255 58.3501 62.0462 58.3928C63.3829 58.4619 64.4291 59.0269 65.132 60.1651C66.2331 61.9496 65.6135 64.2402 63.7344 65.2422C63.3281 65.4597 63.192 65.6853 63.2306 66.1101C63.259 66.4109 63.255 66.7198 63.2245 67.0206C63.1534 67.6812 62.6293 68.1588 61.9995 68.1263C61.3312 68.0897 60.9229 67.7117 60.8172 67.0552C60.5958 65.6772 60.6039 65.6751 59.5882 64.7504C58.8203 64.0512 58.412 63.1793 58.3815 62.1427C58.3612 61.4212 58.8264 60.8968 59.4887 60.8399C60.1448 60.783 60.673 61.2261 60.7969 61.9415C60.8152 62.0411 60.801 62.1447 60.8213 62.2443C60.9574 62.8947 61.5099 63.3195 62.1316 63.2585C62.7288 63.1996 63.2082 62.6955 63.2306 62.096C63.255 61.4659 62.8019 60.9395 62.1478 60.844C61.7984 60.7931 61.4409 60.785 61.1016 60.6976C59.6593 60.3318 58.6029 59.1306 58.3957 57.655C58.1946 56.2242 58.9199 54.71 60.2342 54.025C60.6892 53.7872 60.8761 53.5454 60.8111 53.0515C60.7746 52.7771 60.7868 52.4926 60.8152 52.2182C60.8843 51.5556 61.4023 51.08 62.0361 51.1085C62.7085 51.1389 63.255 51.5393 63.192 52.1694C63.0803 53.2934 63.5251 53.9194 64.4312 54.5088C65.2945 55.0677 65.6033 56.0555 65.6643 56.9843Z" fill="#1F1E23"/>
<path d="M63.2346 47.4744C63.2204 48.1309 62.6679 48.6695 62.0117 48.6654C61.3251 48.6614 60.7685 48.072 60.805 47.385C60.8396 46.7265 61.4043 46.2082 62.0625 46.2326C62.7227 46.259 63.2489 46.8159 63.2346 47.4744Z" fill="#1F1E23"/>
</g>
<defs>
<clipPath id="clip0_958_298">
<rect width="73" height="73" fill="white"/>
</clipPath>
</defs>
</svg>
