<svg width="110" height="57" viewBox="0 0 110 57" fill="none" xmlns="http://www.w3.org/2000/svg">
<g clip-path="url(#clip0_958_307)">
<path d="M0 46.1148C0.460747 45.6745 0.20669 45.0983 0.245444 44.5923C0.361708 43.0501 0.880586 41.7598 2.21761 40.923C2.52549 40.7302 2.71927 40.59 2.52765 40.1716C0.176548 35.0324 0.559785 29.7749 1.9248 24.489C2.7817 21.1746 4.04553 18.0179 5.64737 15.0036C6.51289 13.3737 7.41285 13.2138 8.81016 14.3573C12.7351 17.5732 17.3038 19.0387 22.2579 19.433C22.9706 19.49 23.6897 19.4703 24.4045 19.4878C25.6403 19.5184 26.3853 20.134 26.4068 21.1417C26.4305 22.1691 25.6446 22.8548 24.3593 22.846C22.9641 22.8372 21.5582 22.8482 20.1889 22.5656C19.3492 22.3925 19.0112 22.6226 18.7743 23.4747C17.7237 27.2623 16.8022 31.0696 16.6385 35.0215C16.5653 36.7718 16.6493 38.509 17.3469 40.1629C17.6462 40.8704 18.0531 41.2034 18.8712 41.2275C29.3823 41.5298 39.7254 43.1202 49.9458 45.5759C50.5206 45.7139 50.8457 45.6066 51.2247 45.1575C54.9516 40.7346 58.6914 36.3227 62.4548 31.9327C62.9414 31.3653 62.9866 31.1244 62.3063 30.6665C55.4769 26.0794 48.6669 21.4637 41.8763 16.8174C41.239 16.3815 40.916 16.4187 40.3735 16.9576C38.0288 19.284 35.2256 20.8438 32.1015 21.8142C30.9238 22.1801 30.0217 21.8033 29.7074 20.8525C29.378 19.8624 29.9248 18.9883 31.1521 18.6028C36.6746 16.87 40.3476 13.0868 42.7418 7.85776C43.0238 7.24439 42.9571 6.84569 42.4942 6.33966C41.3466 5.08882 40.5737 3.62767 40.5328 1.85984C40.5091 0.830244 41.0818 0.11172 41.9731 0.0109517C42.8559 -0.0898169 43.6999 0.512604 43.7666 1.49619C43.8764 3.11945 44.813 4.17533 45.9605 5.07567C47.3751 6.18413 48.8628 7.19619 50.3075 8.26741C50.6326 8.50838 50.8501 8.60915 51.2075 8.26522C51.7952 7.69785 52.5143 7.67156 53.1753 8.13378C53.8298 8.58943 54.1162 9.26414 53.7932 10.0374C53.4165 10.9422 54.2755 10.9378 54.6265 11.2708C54.9193 11.5468 55.2444 11.9389 55.7568 11.3781C56.3015 10.7844 57.0486 10.7866 57.7182 11.2532C58.3469 11.6892 58.6268 12.3595 58.3533 13.0627C58.1294 13.6432 58.3512 13.836 58.7624 14.0704C59.1672 14.3026 59.5569 14.5633 59.9337 14.8371C60.2286 15.0518 60.431 15.0321 60.7733 14.8371C62.106 14.0747 63.344 14.8196 63.3462 16.3377C63.3483 17.2446 64.9459 18.2457 65.7425 17.8404C66.9913 17.2008 68.2056 17.8623 68.2443 19.2775C68.2572 19.7616 68.395 19.9675 68.7804 20.1822C75.6335 23.9851 82.6717 27.3017 90.3709 28.9491C93.8093 29.6851 97.323 29.8363 100.785 30.3686C101.847 30.5307 102.882 30.7892 103.873 31.2317C107.134 32.6819 108.743 35.5845 108.172 39.1464C108.08 39.7313 108.185 40.038 108.613 40.4301C110.566 42.2133 110.444 45.0852 108.312 46.6559C104.592 49.3963 100.335 50.9911 96.0097 52.4063C95.0903 52.7064 94.2442 52.1806 93.9622 51.3C93.678 50.4172 94.1409 49.53 95.1549 49.1904C98.0744 48.2156 100.955 47.1531 103.666 45.6635C104.45 45.232 105.207 44.7478 105.959 44.2571C106.366 43.9921 106.936 43.727 106.562 43.0874C106.237 42.5353 105.761 42.8245 105.328 43.0041C102.357 44.2462 99.3555 45.3985 96.296 46.3974C85.2273 50.0163 73.9046 51.7053 62.2718 51.1138C57.2768 50.8597 52.4756 49.5913 47.6291 48.4631C37.2171 46.0425 26.6802 44.5397 15.969 44.5156C12.3928 44.5069 8.81662 44.3075 5.2706 43.7467C3.79793 43.5145 3.64937 43.6438 3.54387 45.1181C3.44053 46.5704 3.38455 48.0272 3.28766 49.4796C3.23814 50.2069 3.44699 50.6297 4.24145 50.7523C14.8558 52.3909 25.4918 53.3241 36.188 51.6133C41.6179 50.7458 46.9466 51.3438 52.2646 52.4983C58.4782 53.8477 64.7715 53.8543 71.0712 53.4534C76.9662 53.0788 82.8117 52.3077 88.5796 50.9714C89.753 50.6998 90.6336 51.2343 90.8317 52.231C91.0233 53.1971 90.4226 53.9704 89.204 54.2398C79.0848 56.4808 68.8601 57.4863 58.5062 56.7831C55.5781 56.5838 52.6758 56.1062 49.8188 55.4447C44.9981 54.3274 40.1797 54.3406 35.3268 55.1248C29.4964 56.0668 23.6294 55.9857 17.7646 55.6352C13.5145 55.3811 9.29459 54.8159 5.06821 54.2946C2.81615 54.012 1.02699 53.3 0 51.1401C0 49.4643 0 47.7906 0 46.1148ZM54.2777 46.6515C56.674 47.197 58.9347 47.473 61.2082 47.6592C67.7319 48.1937 74.2168 47.806 80.6716 46.7654C88.7841 45.4576 96.6039 43.118 104.167 39.8715C104.568 39.7006 104.775 39.4991 104.876 39.0413C105.377 36.7762 104.549 35.1091 102.421 34.2372C101.181 33.729 99.87 33.5472 98.5524 33.4377C92.3991 32.9272 86.3857 31.775 80.6048 29.4967C77.4808 28.2656 74.4299 26.8702 71.3662 25.3389C71.0583 26.8702 70.7892 28.3291 70.4662 29.7771C70.1002 31.4201 69.1077 32.6447 67.4606 32.752C66.1042 32.8418 65.342 33.4859 64.6208 34.4607C64.2117 35.0127 63.738 35.5122 63.2945 36.0357C60.3234 39.5298 57.3565 43.026 54.2777 46.6515ZM14.1367 41.0873C13.549 39.2275 13.2863 37.3698 13.3337 35.4706C13.4435 31.0762 14.365 26.8286 15.6395 22.6554C15.8785 21.8712 15.7171 21.628 14.9743 21.409C12.6662 20.7277 10.5067 19.6849 8.52381 18.307C7.98125 17.9302 7.80255 18.0157 7.54849 18.5787C5.74857 22.5634 4.42231 26.6862 4.15533 31.0937C3.96586 34.2022 4.47398 37.1771 6.09305 39.8803C6.28682 40.2023 6.43107 40.5922 6.92412 40.636C9.30536 40.8507 11.6823 41.1377 14.1367 41.0873ZM45.7991 9.11299C45.1123 10.5917 44.3996 12.0156 43.4695 13.3036C43.1186 13.79 43.4738 13.9105 43.7602 14.1054C51.1924 19.1482 58.6268 24.1867 66.0568 29.2339C66.7243 29.6873 67.1592 29.6764 67.3314 28.7541C67.6178 27.2185 67.9407 25.6916 68.2508 24.1604C68.3046 23.8953 68.2745 23.7244 68.0182 23.5251C66.6984 22.5021 66.4164 22.5327 65.4928 23.9128C65.271 24.2436 65.0643 24.5941 64.7887 24.8723C64.1816 25.4879 63.4603 25.5755 62.739 25.1045C62.0006 24.6226 61.8757 23.8887 62.1319 23.087C62.218 22.8175 62.4139 22.5831 62.5711 22.3422C63.5012 20.9161 63.4818 20.9533 62.0565 20.0486C61.4903 19.6893 61.2147 19.7397 60.909 20.3202C60.6571 20.7978 60.3384 21.2468 59.9961 21.6631C59.3954 22.3947 58.4933 22.5218 57.7935 22.0245C57.0852 21.5185 56.8828 20.6247 57.3371 19.8032C57.617 19.2972 57.955 18.824 58.2801 18.3465C58.4674 18.0726 58.5127 17.9061 58.1983 17.6345C56.7213 16.353 56.3898 16.3661 55.2594 17.8952C55.1518 18.0398 55.0485 18.1953 54.9171 18.3114C54.2691 18.881 53.5542 18.973 52.8588 18.4516C52.1742 17.939 51.9933 17.2227 52.3356 16.4187C52.4627 16.123 52.6328 15.8229 52.8502 15.595C53.5822 14.8239 53.4057 14.3617 52.5273 13.8228C51.8598 13.4132 51.5046 13.365 51.1558 14.112C51.0051 14.4362 50.779 14.7319 50.5486 15.008C49.9372 15.733 49.0652 15.8601 48.3461 15.3541C47.6356 14.8546 47.4741 13.9827 47.8767 13.1262C48.1695 12.5041 49.076 11.998 48.7659 11.3387C48.4947 10.7625 47.6743 10.4515 47.093 10.0309C46.6861 9.73732 46.2749 9.45034 45.7991 9.11299Z" fill="#1F1E23"/>
</g>
<defs>
<clipPath id="clip0_958_307">
<rect width="110" height="57" fill="white"/>
</clipPath>
</defs>
</svg>
