<svg width="51" height="81" viewBox="0 0 51 81" fill="none" xmlns="http://www.w3.org/2000/svg">
<g clip-path="url(#clip0_958_316)">
<path d="M25.3787 42.5933C25.1924 44.2875 25.013 45.8892 24.8447 47.4909C24.2412 53.2208 23.6422 58.9508 23.0409 64.683C22.5249 69.6031 22.0089 74.5232 21.4951 79.4433C21.374 80.6141 20.9544 80.9999 19.7564 80.9999C13.7415 81.0021 7.72654 81.0021 1.71163 80.9999C0.383456 80.9999 -0.123582 80.4224 0.0222476 79.1117C1.0812 69.5309 2.1379 59.9479 3.20133 50.3671C4.184 41.5128 5.17564 32.6584 6.16055 23.804C6.78201 18.2162 7.43713 12.6329 7.98903 7.04051C8.1573 5.33957 8.03615 3.61156 8.04288 1.89708C8.04961 0.295397 8.5746 -0.121943 10.1563 0.0359695C15.6619 0.590918 21.1586 1.42334 26.7068 1.27445C31.4025 1.14812 36.0736 0.566104 40.7424 0.0540166C42.4632 -0.135478 43.0218 0.252535 42.9523 1.95348C42.7481 6.84425 43.5535 11.6515 44.0561 16.4859C44.5564 21.2932 45.115 26.096 45.6467 30.9011C46.2413 36.2633 46.8358 41.6278 47.4281 46.9923C48.0114 52.2734 48.5903 57.5521 49.1758 62.8332C49.7681 68.1977 50.3559 73.5622 50.9639 78.9222C51.1389 80.4517 50.6924 81.0021 49.1534 81.0021C43.2215 81.0021 37.2918 81.0021 31.3599 81.0021C30.0116 81.0021 29.6459 80.6705 29.5023 79.3034C28.6071 70.7784 27.7187 62.2512 26.8213 53.7262C26.4488 50.1754 26.0652 46.6269 25.6838 43.0784C25.6726 42.9385 25.704 42.7873 25.3787 42.5933ZM16.1061 8.77529C16.1061 9.74081 16.1061 10.6928 16.1061 11.6448C16.1016 15.9648 13.8424 18.9358 9.6829 20.048C9.34189 20.1382 9.23644 20.2668 9.20727 20.5984C9.10631 21.7173 8.97619 22.834 8.85055 23.9529C7.8634 32.8073 6.874 41.6617 5.89133 50.5183C4.88623 59.5689 3.89683 68.6218 2.87827 77.6702C2.81545 78.2274 2.96801 78.3086 3.4728 78.3063C8.39736 78.2883 13.3219 78.2883 18.2442 78.3041C18.7468 78.3063 18.9397 78.2184 18.9981 77.6431C19.7362 70.4017 20.5169 63.1625 21.2775 55.9234C22.24 46.7532 23.1935 37.5853 24.1537 28.4151C24.2479 27.5082 24.7393 26.9893 25.4976 26.9848C26.2559 26.9803 26.7629 27.4992 26.8594 28.3993C27.6895 36.2543 28.5196 44.1093 29.3452 51.9643C30.2404 60.4893 31.1401 69.0166 32.0061 77.5461C32.0689 78.162 32.2259 78.3176 32.8362 78.3131C37.5633 78.2838 42.2927 78.2973 47.0198 78.2973C48.1707 78.2973 48.1685 78.2973 48.0361 77.1085C48.0047 76.8287 47.998 76.5467 47.9688 76.267C46.8717 66.4065 45.7701 56.546 44.6753 46.6855C43.7195 38.0816 42.7638 29.4776 41.8417 20.8691C41.7766 20.26 41.5433 20.1134 41.0251 19.9668C37.6687 19.0148 35.6496 16.8017 35.0169 13.3435C34.7768 12.0328 34.9182 10.7041 34.9227 9.38663C34.9249 8.82943 34.7678 8.77754 34.2586 8.82266C31.001 9.12044 27.7456 9.50845 24.4655 9.40243C21.6993 9.30993 18.942 9.04374 16.1061 8.77529ZM25.5424 6.74499C26.2492 6.71115 26.9738 6.68633 27.7007 6.64122C31.1872 6.42014 34.6669 6.08852 38.1421 5.7366C40.3475 5.51327 40.3363 5.55162 40.2892 3.38822C40.2802 2.95058 40.1905 2.79718 39.735 2.86937C39.0463 2.97765 38.3485 3.04082 37.653 3.10398C33.1727 3.50553 28.6991 4.14846 24.1896 3.98603C20.3621 3.84842 16.5526 3.42206 12.7408 3.04533C12.0925 2.98216 11.1906 2.5355 10.8495 2.98216C10.5085 3.43108 10.7643 4.32667 10.7239 5.02374C10.7015 5.42078 10.8338 5.53583 11.2309 5.56741C12.5681 5.67118 13.9007 5.83812 15.2356 5.9667C18.6593 6.29381 22.0829 6.62317 25.5424 6.74499ZM9.56624 17.3026C11.5383 16.6145 12.7251 15.3377 13.2524 13.4224C13.5036 12.5133 13.4094 11.5816 13.4139 10.659C13.4251 8.36472 13.4184 8.36472 11.13 8.25643C11.1031 8.25418 11.0739 8.25643 11.047 8.25192C10.7104 8.18876 10.5691 8.28576 10.5287 8.66926C10.2281 11.5094 9.89828 14.3473 9.56624 17.3026ZM41.4334 17.2191C41.1731 14.9203 40.9196 12.6374 40.6571 10.3589C40.5764 9.65057 40.7917 8.64219 40.2645 8.32637C39.7597 8.02408 38.869 8.39404 38.1444 8.43465C37.7293 8.45721 37.5678 8.60384 37.579 9.04599C37.6104 10.1672 37.5611 11.2929 37.6014 12.414C37.6867 14.6677 39.3671 16.7792 41.4334 17.2191Z" fill="#1F1E23"/>
</g>
<defs>
<clipPath id="clip0_958_316">
<rect width="51" height="81" fill="white"/>
</clipPath>
</defs>
</svg>
