<svg width="80" height="80" viewBox="0 0 80 80" fill="none" xmlns="http://www.w3.org/2000/svg">
<g clip-path="url(#clip0_958_325)">
<path d="M80.0001 28.4413C79.6974 28.8276 79.783 29.3142 79.6619 29.7485C77.3569 37.9295 72.269 43.5297 64.1391 46.1335C60.6087 47.2652 57.0845 46.5637 53.6856 45.2628C52.8859 44.9579 52.1072 44.6009 51.3284 44.2438C50.5372 43.8826 50.2616 43.2875 50.5476 42.6318C50.8253 41.9929 51.4976 41.7632 52.2617 42.1119C54.0363 42.9242 55.8381 43.6612 57.7609 44.035C60.7736 44.6218 63.6631 44.2376 66.396 42.8281C70.9516 40.4749 74.2816 36.946 76.3882 32.2792C78.4405 27.7335 77.8267 23.3172 75.6763 18.9866C74.6533 16.9236 73.3463 15.0527 71.8473 13.3133C70.5946 11.86 69.5423 10.3002 69.1728 8.37088C68.9891 7.41454 68.9536 6.45612 69.202 5.50814C69.3356 5.00283 69.2396 4.61863 68.8346 4.25948C68.2897 3.77714 67.8032 3.23006 67.2771 2.72475C66.847 2.31132 66.3626 2.22153 65.8803 2.62661C59.3915 8.05976 52.8484 13.4553 47.869 20.4002C45.7227 23.3882 43.6996 26.4953 42.5764 30.0679C42.163 31.3813 42.0921 32.7887 41.5409 34.0603C39.6514 38.4056 36.4717 41.214 31.7596 42.1432C29.6467 42.5608 27.7093 43.394 25.824 44.415C20.3915 47.3592 15.7212 51.2618 11.485 55.7198C11.2512 55.9641 11.0215 56.2126 10.7773 56.4465C10.1781 57.0165 9.47031 57.052 8.98594 56.5467C8.50366 56.0414 8.52036 55.4045 9.10077 54.8157C10.3785 53.5169 11.6729 52.2348 12.9757 50.9611C16.9321 47.094 21.4459 44.01 26.3626 41.5022C28.1331 40.5981 30.0288 40.0593 31.9788 39.6981C33.3359 39.4475 34.5677 38.9005 35.5928 37.9775C37.2567 36.4783 39.0522 35.0041 39.5262 32.6822C41.14 24.7705 45.7728 18.6128 51.0174 12.8393C55.0698 8.37714 59.7861 4.61863 64.4252 0.795382C65.8177 -0.353053 67.561 -0.229858 68.8847 1.02298C69.5256 1.6327 70.1415 2.26955 70.7637 2.89806C71.5174 3.66021 71.8118 4.58731 71.5529 5.61881C71.0748 7.52312 71.6343 9.16852 72.7429 10.6698C73.5133 11.716 74.3923 12.6827 75.1689 13.7247C77.5574 16.9403 79.2735 20.4566 79.8456 24.4678C79.8602 24.5763 79.8769 24.6682 80.0043 24.6912C80.0001 25.9398 80.0001 27.1906 80.0001 28.4413Z" fill="#1F1E23"/>
<path d="M24.8552 79.9998C23.7612 79.7326 22.6526 79.5091 21.5753 79.1876C17.9822 78.1122 14.8505 76.2016 12.0091 73.7857C11.1364 73.0445 10.2616 72.3095 9.20098 71.8397C8.07149 71.3385 6.91694 71.1757 5.70602 71.4826C4.63707 71.7541 3.69548 71.493 2.90629 70.7267C2.2716 70.1107 1.639 69.4906 1.02937 68.8475C-0.273415 67.4735 -0.3444 65.7154 0.853992 64.2621C2.22776 62.5958 3.62449 60.9462 5.01914 59.2988C5.62877 58.5805 6.26555 58.4614 6.8376 58.925C7.41175 59.3927 7.39504 60.1027 6.77914 60.8397C5.46175 62.4183 4.136 63.9906 2.8186 65.5671C2.18183 66.3293 2.19435 66.6738 2.8708 67.3754C2.97936 67.4881 3.10463 67.5863 3.20067 67.7095C4.07963 68.8517 5.06089 69.2818 6.64344 69.0438C8.90452 68.7034 10.89 69.8101 12.6145 71.2508C14.3933 72.7375 16.2034 74.1741 18.2516 75.2808C25.0452 78.9474 31.4255 78.2563 37.3778 73.1719C40.5053 70.5012 42.9376 67.342 43.9481 63.2661C44.7394 60.0734 44.088 57.0269 42.8938 54.0535C41.9355 51.6627 40.6995 49.4076 39.4948 47.1379C38.8497 45.9247 38.5658 44.651 38.7704 43.2979C39.4134 39.0529 44.0713 37.5683 47.3136 39.5937C47.8731 39.9445 47.9984 40.4978 47.7145 41.0971C47.4431 41.6734 46.8188 41.8822 46.1904 41.6087C45.6434 41.3727 45.1152 41.1055 44.4993 41.0595C42.1004 40.8779 40.5032 42.8803 41.2131 45.1876C41.4219 45.8662 41.7935 46.4613 42.1192 47.0815C43.4721 49.6561 44.8145 52.2307 45.7269 55.0078C47.3428 59.9314 46.8084 64.6066 44.0629 68.9916C40.7162 74.3391 36.1481 78.0892 29.9181 79.6219C29.2772 79.7785 28.5966 79.7242 27.9828 80.004C27.774 80.004 27.5652 80.004 27.3585 80.004C26.8386 79.7639 26.3167 79.7681 25.7968 80.004C25.4795 79.9998 25.1663 79.9998 24.8552 79.9998Z" fill="#1F1E23"/>
<path d="M25.7927 79.9998C26.3125 79.7639 26.8345 79.7597 27.3543 79.9998C26.8324 79.9998 26.3125 79.9998 25.7927 79.9998Z" fill="#1F1E23"/>
<path d="M26.4106 74.9488C20.9615 74.6627 16.4978 72.1926 13.2221 67.7575C11.1176 64.9094 11.2345 61.7251 12.7941 58.6013C13.6292 56.9309 14.8109 55.5027 16.1846 54.254C19.6838 51.0676 23.4669 48.2884 27.9055 46.5407C31.5445 45.1062 34.2232 45.8036 36.7598 48.7791C38.6869 51.0384 40.1295 53.5733 40.973 56.436C41.996 59.9064 41.6557 63.2515 39.8769 66.3815C37.3674 70.7956 33.743 73.7899 28.6446 74.7713C28.4671 74.8047 28.2855 74.8298 28.1038 74.8423C27.584 74.8778 27.0641 74.907 26.4106 74.9488ZM25.7739 72.5496C29.9682 72.5642 33.1459 71.0462 35.7869 68.1292C37.8768 65.8177 39.3174 63.17 39.165 59.9857C38.9583 55.701 36.9477 52.1973 33.9183 49.2614C32.7868 48.1652 31.3608 47.9501 29.8472 48.351C29.1185 48.5452 28.417 48.8167 27.7343 49.1382C23.9825 50.9006 20.6588 53.2893 17.6357 56.104C16.5458 57.1188 15.5938 58.2652 14.9111 59.5953C13.7336 61.888 13.5332 64.2809 15.1178 66.3856C17.9614 70.1609 21.7716 72.3429 25.7739 72.5496Z" fill="#1F1E23"/>
<path d="M75.0792 26.3533C74.9435 31.8741 72.388 35.6995 68.4609 38.7188C65.3981 41.0721 61.9261 42.091 58.0574 41.402C55.0552 40.8653 52.4266 39.4768 49.9839 37.704C49.2887 37.1987 48.6415 36.637 48.0402 36.0189C46.061 33.9873 45.4972 31.6215 46.3303 28.9112C46.6685 27.8149 47.1069 26.7605 47.6477 25.754C49.8085 21.747 52.3682 18.0303 55.7608 14.9566C57.6002 13.2883 59.6838 12.0563 62.2392 11.8204C64.2289 11.6366 66.1288 11.9811 67.726 13.1651C72.2627 16.531 74.8015 21.0204 75.0792 26.3533ZM72.7158 26.4055C72.4673 21.8827 70.2793 18.1096 66.5485 15.1968C65.3605 14.2697 63.9178 14.017 62.4084 14.1653C60.331 14.3678 58.6858 15.439 57.2181 16.7962C54.0739 19.707 51.6708 23.1836 49.6749 26.9526C49.201 27.8463 48.8085 28.7796 48.5225 29.7547C48.036 31.4168 48.3513 32.8764 49.5225 34.1668C50.675 35.4364 52.0717 36.376 53.5415 37.2217C58.1075 39.8505 62.6505 40.1805 67.0266 36.8646C70.3795 34.3234 72.6177 31.0932 72.7158 26.4055Z" fill="#1F1E23"/>
</g>
<defs>
<clipPath id="clip0_958_325">
<rect width="80" height="80" fill="white"/>
</clipPath>
</defs>
</svg>
