<svg width="229" height="137" viewBox="0 0 229 137" fill="none" xmlns="http://www.w3.org/2000/svg">
<path d="M264.3 0.51973L264.3 2.12973L68.4598 2.12971C50.7898 2.12971 34.1698 9.01971 21.6698 21.5397C9.15981 34.0497 2.27982 50.6797 2.27982 68.3697C2.27982 86.0497 9.1698 102.68 21.6698 115.2C34.1798 127.72 50.7998 134.61 68.4598 134.61L264.3 134.61L264.3 136.22L68.4598 136.22C50.3598 136.22 33.3398 129.16 20.5298 116.34C7.71979 103.52 0.669804 86.4897 0.669806 68.3797C0.669807 50.2697 7.7198 33.2297 20.5298 20.4197C33.3398 7.59971 50.3598 0.539715 68.4598 0.539717L264.3 0.539734L264.3 0.51973Z" fill="#F65D34"/>
<path d="M264.3 9.6893L264.3 11.2993L68.4598 11.2993C53.2398 11.2993 38.9198 17.2393 28.1498 28.0193C17.3798 38.7993 11.4398 53.1293 11.4398 68.3593C11.4398 99.8193 37.0198 125.419 68.4598 125.419L68.4598 127.029C36.1298 127.029 9.82981 100.709 9.82981 68.3593C9.82981 52.6993 15.9298 37.9693 27.0098 26.8793C38.0898 15.7893 52.8098 9.68928 68.4598 9.68928L264.3 9.6893Z" fill="#F65D34"/>
<path d="M264.3 18.8594L264.3 20.4694L68.4598 20.4694C55.6798 20.4694 43.6698 25.4494 34.6298 34.4994C25.5898 43.5294 20.6098 55.5594 20.6098 68.3594C20.6098 94.7694 42.0798 116.249 68.4698 116.249L68.4698 117.859C41.1898 117.859 18.9998 95.6494 18.9998 68.3594C18.9998 55.1294 24.1498 42.6994 33.4998 33.3594C42.8498 24.0094 55.2698 18.8594 68.4698 18.8594L264.3 18.8594Z" fill="#F65D34"/>
<path d="M264.3 28.0302L264.3 29.6402L68.4598 29.6402C58.1198 29.6402 48.3998 33.6702 41.0998 40.9902C33.7898 48.2902 29.7598 58.0102 29.7598 68.3702C29.7598 89.7202 47.1198 107.09 68.4598 107.09L68.4598 108.7C46.2398 108.7 28.1598 90.6102 28.1598 68.3702C28.1598 57.5902 32.3498 47.4602 39.9698 39.8602C47.5698 32.2402 57.6898 28.0402 68.4598 28.0402L264.3 28.0402L264.3 28.0302Z" fill="#F65D34"/>
<path d="M264.3 37.1993L264.3 38.8093L68.4598 38.8093C60.5598 38.8093 53.1498 41.8893 47.5798 47.4693C41.9998 53.0393 38.9198 60.4593 38.9198 68.3593C38.9198 76.2593 41.9898 83.6793 47.5698 89.2493C53.1398 94.8393 60.5498 97.9093 68.4498 97.9093L264.3 97.9093L264.3 99.5293L68.4598 99.5293C60.1298 99.5293 52.3098 96.2893 46.4398 90.3993C40.5598 84.5293 37.3198 76.7093 37.3198 68.3693C37.3198 60.0293 40.5598 52.2093 46.4398 46.3393C52.3098 40.4493 60.1298 37.2093 68.4498 37.2093L264.3 37.2093L264.3 37.1993Z" fill="#F65D34"/>
<path d="M264.3 46.3696L264.3 47.9796L68.4598 47.9796C63.0098 47.9796 57.8998 50.0996 54.0598 53.9496C50.2098 57.7896 48.0898 62.9096 48.0898 68.3596C48.0898 79.5996 57.2298 88.7396 68.4598 88.7396L68.4598 90.3496C56.3398 90.3496 46.4798 80.4796 46.4798 68.3596C46.4798 62.4696 48.7698 56.9496 52.9198 52.8096C57.0498 48.6596 62.5698 46.3696 68.4498 46.3696L264.3 46.3696Z" fill="#F65D34"/>
<path d="M68.4598 90.3594L264.3 90.3594L264.3 88.7494L68.4598 88.7494L68.4598 90.3594Z" fill="#F65D34"/>
<path d="M68.4598 108.7L264.3 108.7L264.3 107.09L68.4598 107.09L68.4598 108.7Z" fill="#F65D34"/>
<path d="M68.4598 117.87L264.3 117.87L264.3 116.26L68.4598 116.26L68.4598 117.87Z" fill="#F65D34"/>
<path d="M68.4598 127.04L264.3 127.04L264.3 125.43L68.4598 125.43L68.4598 127.04Z" fill="#F65D34"/>
</svg>
