<svg width="129" height="34" viewBox="0 0 129 34" fill="none" xmlns="http://www.w3.org/2000/svg">
<g clip-path="url(#clip0_958_154)">
<path d="M43 22.8427V3.0332H47.8226V22.8516H43V22.8427Z" fill="#272525"/>
<path d="M52.8062 20.838C51.3478 19.3706 50.623 17.4111 50.623 14.9685C50.623 12.5259 51.3478 10.5664 52.8062 9.10796C54.2646 7.64954 56.1525 6.9248 58.4699 6.9248C60.3846 6.9248 62.013 7.39902 63.3552 8.34744C64.6883 9.29586 65.5741 10.6559 66.0125 12.4274H60.7873C60.3399 11.488 59.5973 11.0138 58.5683 11.0138C57.5394 11.0138 56.7788 11.3806 56.2778 12.0964C55.7767 12.8211 55.5262 13.7785 55.5262 14.9595C55.5262 16.1495 55.7767 17.098 56.2778 17.8227C56.7788 18.5474 57.5036 18.9053 58.4609 18.9053C59.0604 18.9053 59.5346 18.798 59.8746 18.5922C60.2146 18.3864 60.5099 18.0195 60.7783 17.4916H66.0036C65.5741 19.1827 64.6794 20.5338 63.3194 21.5269C61.9683 22.529 60.3488 23.0211 58.4609 23.0211C56.1525 23.039 54.2646 22.3143 52.8062 20.838Z" fill="#272525"/>
<path d="M69.6902 20.811C68.0976 19.3257 67.3013 17.3662 67.3013 14.9415C67.3013 12.5168 68.0886 10.5752 69.6723 9.11675C71.256 7.65833 73.2065 6.93359 75.5418 6.93359C77.8771 6.93359 79.8276 7.65833 81.4023 9.11675C82.9771 10.5752 83.7555 12.5168 83.7555 14.9415C83.7555 17.3662 82.9771 19.3257 81.4113 20.811C79.8455 22.2962 77.9039 23.0389 75.5686 23.0389C73.2423 23.0389 71.2739 22.2962 69.6902 20.811ZM77.886 17.9031C78.5213 17.2231 78.8434 16.2478 78.8434 14.9683C78.8434 13.6889 78.5123 12.7136 77.8592 12.0515C77.1971 11.3804 76.4186 11.0494 75.515 11.0494C74.6113 11.0494 73.8328 11.3804 73.1886 12.0515C72.5355 12.7225 72.2134 13.6978 72.2134 14.9683C72.2134 16.2478 72.5444 17.2231 73.2155 17.9031C73.8865 18.5831 74.665 18.9231 75.5686 18.9231C76.4723 18.9231 77.2507 18.5831 77.886 17.9031Z" fill="#272525"/>
<path d="M91.4052 7.0948V9.41217C92.3983 7.75691 93.9909 6.9248 96.1741 6.9248C97.9815 6.9248 99.4399 7.52428 100.567 8.73217C101.686 9.94006 102.249 11.5774 102.249 13.6443V22.8422H97.4536V14.2885C97.4536 13.2685 97.1852 12.4901 96.6483 11.9353C96.1115 11.3806 95.3688 11.1032 94.4294 11.1032C93.4899 11.1032 92.7473 11.3806 92.2104 11.9353C91.6736 12.4901 91.4052 13.2774 91.4052 14.2885V22.8422H86.5825V7.0948H91.4052Z" fill="#272525"/>
<path d="M110.454 5.31432C109.909 5.86011 109.238 6.12853 108.45 6.12853C107.663 6.12853 106.992 5.86011 106.446 5.31432C105.9 4.76853 105.632 4.09747 105.632 3.30116C105.632 2.50484 105.9 1.82484 106.446 1.27905C106.992 0.733265 107.663 0.464844 108.45 0.464844C109.238 0.464844 109.909 0.733265 110.454 1.27905C111 1.82484 111.278 2.49589 111.278 3.30116C111.278 4.09747 111 4.76853 110.454 5.31432ZM106.052 22.8422V7.09484H110.875V22.8422H106.052Z" fill="#272525"/>
<path d="M115.867 20.838C114.409 19.3706 113.684 17.4111 113.684 14.9685C113.684 12.5259 114.409 10.5664 115.867 9.10796C117.326 7.64954 119.214 6.9248 121.531 6.9248C123.446 6.9248 125.074 7.39902 126.416 8.34744C127.749 9.29586 128.635 10.6559 129.074 12.4274H123.848C123.401 11.488 122.658 11.0138 121.629 11.0138C120.6 11.0138 119.84 11.3806 119.339 12.0964C118.838 12.8211 118.587 13.7785 118.587 14.9595C118.587 16.1495 118.838 17.098 119.339 17.8227C119.84 18.5474 120.565 18.9053 121.522 18.9053C122.121 18.9053 122.596 18.798 122.936 18.5922C123.276 18.3864 123.571 18.0195 123.839 17.4916H129.065C128.635 19.1827 127.74 20.5338 126.38 21.5269C125.029 22.529 123.41 23.0211 121.522 23.0211C119.205 23.039 117.317 22.3143 115.867 20.838Z" fill="#272525"/>
<path d="M63.3107 29.8213V33.8297H62.3355V31.566L61.4049 33.8297H60.6802L59.7497 31.566V33.8297H58.7744V29.8213H59.8928L61.047 32.586L62.1923 29.8213H63.3107Z" fill="#272525"/>
<path d="M69.2158 29.8117V30.5543H67.7663V31.4133H69.0458V32.1559H67.7663V33.0864H69.2158V33.8291H66.791V29.8027H69.2158V29.8117Z" fill="#272525"/>
<path d="M75.2826 29.8115H76.2578V33.8378H75.2826L73.6452 31.3057V33.8378H72.6699V29.8115H73.6452L75.2826 32.3436V29.8115Z" fill="#272525"/>
<path d="M81.0891 30.5367C80.9639 30.5367 80.8654 30.5725 80.7849 30.6352C80.7044 30.6978 80.6686 30.7962 80.6686 30.9125C80.6686 31.0288 80.7044 31.1362 80.776 31.2078C80.8475 31.2794 80.946 31.342 81.0623 31.3778C81.1786 31.4225 81.3039 31.4583 81.447 31.4941C81.5902 31.5299 81.7333 31.5746 81.8765 31.6283C82.0196 31.682 82.1449 31.7446 82.2612 31.8162C82.3775 31.8967 82.476 32.0041 82.5475 32.1383C82.6191 32.2815 82.6549 32.4425 82.6549 32.6394C82.6549 32.9794 82.5207 33.2657 82.2433 33.5073C81.966 33.7488 81.5991 33.8741 81.1518 33.8741C80.7044 33.8741 80.3375 33.7667 80.0602 33.552C79.7828 33.3373 79.6486 33.0241 79.6486 32.6304H80.6865C80.7133 32.9525 80.8744 33.1136 81.1786 33.1136C81.3218 33.1136 81.4291 33.0778 81.5096 33.0062C81.5902 32.9346 81.626 32.8362 81.626 32.7199C81.626 32.6036 81.5902 32.5141 81.5186 32.4425C81.447 32.3709 81.3486 32.3173 81.2323 32.2725C81.116 32.2278 80.9907 32.192 80.8475 32.1562C80.7044 32.1204 80.5612 32.0757 80.4181 32.022C80.2749 31.9683 80.1496 31.9057 80.0333 31.8341C79.917 31.7625 79.8186 31.6552 79.747 31.512C79.6754 31.3688 79.6396 31.2078 79.6396 31.0199C79.6396 30.6441 79.7828 30.3488 80.0602 30.1252C80.3375 29.9015 80.6954 29.7852 81.1249 29.7852C81.5544 29.7852 81.9033 29.8836 82.1718 30.0804C82.4402 30.2773 82.5744 30.5904 82.5923 31.0109H81.5275C81.5096 30.8678 81.4649 30.7515 81.3844 30.6799C81.3128 30.5725 81.2144 30.5367 81.0891 30.5367Z" fill="#272525"/>
<path d="M90.493 29.8213H91.5488L90.4214 33.8297H89.303L88.5962 31.2887L87.8983 33.8297H86.7799L85.6436 29.8213H86.6904L87.3883 32.7023L88.1041 29.8213H89.2136L89.9025 32.6576L90.493 29.8213Z" fill="#272525"/>
<path d="M97.0601 29.8117V30.5543H95.6107V31.4133H96.8901V32.1559H95.6107V33.0864H97.0601V33.8291H94.6265V29.8027H97.0601V29.8117Z" fill="#272525"/>
<path d="M103.064 33.8291L102.84 33.158H101.4L101.176 33.8291H100.138L101.534 29.8027H102.724L104.111 33.8291H103.064ZM101.65 32.4154H102.599L102.125 30.9838L101.65 32.4154Z" fill="#272525"/>
<path d="M108.182 32.2729V33.8297H107.207V29.8213H108.79C109.255 29.8213 109.613 29.9376 109.873 30.1792C110.132 30.4208 110.258 30.7071 110.258 31.0471C110.258 31.2797 110.186 31.5034 110.043 31.7271C109.9 31.9508 109.667 32.1029 109.354 32.1923L110.338 33.8297H109.193L108.289 32.2729H108.182ZM108.182 30.5639V31.5302H108.79C108.942 31.5302 109.059 31.4855 109.139 31.396C109.229 31.3065 109.264 31.1902 109.264 31.0471C109.264 30.9039 109.22 30.7876 109.13 30.6981C109.041 30.6087 108.924 30.5639 108.781 30.5639H108.182Z" fill="#272525"/>
</g>
<path d="M30.98 17.1013C31 15.6913 30.75 14.2613 30.23 12.9613C29.69 11.6713 28.98 10.4913 28.08 9.56131C28.18 9.05131 28.15 8.23131 27.51 7.42131C26.66 6.32131 25.45 5.14131 24.08 4.38131C22.72 3.58131 21.2 3.34131 20.13 3.62131C19.75 3.35131 19.3 3.16131 18.88 3.06131C18.46 2.97131 18.07 2.99131 17.8 3.05131C17.4 3.13131 17 3.24131 16.6 3.33131C16.31 3.39131 16.03 3.44131 15.75 3.49131C15.71 3.49131 15.66 3.49131 15.61 3.49131C14.93 3.48131 14.24 3.47131 13.56 3.49131C13.23 3.50131 12.91 3.52131 12.56 3.57131C12.15 3.64131 11.75 3.72131 11.37 3.83131C11.39 3.83131 11.42 3.84131 11.45 3.84131C11.28 3.86131 11.1 3.87131 10.93 3.90131C10.06 4.02131 9.19 4.24131 8.4 4.57131C6.64 5.47131 4.71 6.60131 3.86 7.88131C3.35 8.74131 2.86 9.47131 2.45 10.2013C2.43 10.2213 2.41 10.2413 2.4 10.2713C2.3 10.3613 2.19 10.4713 2.1 10.5913L2.09 10.6013C1.98 10.7313 1.89 10.8813 1.81 11.0513C1.9 10.8813 2 10.7413 2.1 10.6213L2.19 10.6913C2.1 10.8613 2.02 11.0413 1.94 11.2213C1.28 12.1013 0.779999 13.4113 0.369999 13.7013C0.659999 14.2513 0.859999 13.3713 1.11 12.6313C0.989999 13.0213 0.899999 13.4613 0.789999 13.9113C0.709999 14.3613 0.639999 14.8213 0.559999 15.2613C0.549999 15.3113 0.549999 15.3613 0.539999 15.4113C0.519999 15.0313 0.400001 14.7413 0.690001 14.3613C0.590001 14.1213 0.469999 14.1713 0.309999 14.4313C0.179999 15.3013 -0.130001 16.9413 0.209999 17.0413C0.149999 17.2213 0.09 17.3813 0 17.5313L0.289999 17.9613C0.269999 18.0213 0.25 18.0913 0.23 18.1513C0.27 18.1013 0.31 18.0413 0.34 17.9813C0.46 19.1013 0.589999 20.3113 1.13 21.0413C1.24 21.1013 1.33 21.1413 1.41 21.1713C1.34 21.5113 1.2 21.0613 1.01 21.0013C1.22 21.7613 1.48 22.3013 1.82 22.4113C1.69 21.9913 1.56 21.5913 1.46 21.1713C1.58 21.2013 1.66 21.2113 1.72 21.1913C2.03 21.5313 2.31 21.7913 2.3 21.9413C2.42 22.4713 2.51 22.9413 2.59 23.4013C2.59 23.4013 2.59 23.4013 2.59 23.4113C2.65 23.7913 2.72 24.1513 2.78 24.5013C2.75 24.4913 2.71 24.4913 2.68 24.4813C2.45 23.9913 2.07 23.3313 2 23.0513C2.02 23.3813 2.06 23.7213 2.13 24.0413L2.45 24.2313C2.51 24.3613 2.51 24.4413 2.48 24.4913C2.47 24.5013 2.47 24.5113 2.46 24.5213C2.43 24.5513 2.4 24.5713 2.37 24.5913C2.38 24.6113 2.4 24.6213 2.41 24.6413C2.4 24.6813 2.39 24.7113 2.38 24.7613L2.49 24.7413C2.58 24.8513 2.68 24.9613 2.77 25.0613C2.8 25.0613 2.81 25.0413 2.83 25.0213C2.85 25.5113 2.85 26.0113 3.39 26.7613C3.4 26.7613 3.42 26.7713 3.44 26.7713C3.64 27.2013 3.91 27.6313 4.28 28.0713C4.34 28.1813 4.73 28.3513 5.12 28.4613C5.15 28.4813 5.17 28.5013 5.19 28.5213C5.49 28.6013 5.67 28.6113 5.78 28.5713C5.92 28.5813 6.02 28.5713 6.05 28.5413C6.01 28.1813 5.65 27.6213 5.29 27.0513C5.33 27.0813 5.37 27.1213 5.41 27.1613L5.36 27.0713C5.33 27.0613 5.31 27.0513 5.29 27.0413C5 26.5813 4.71 26.1113 4.59 25.7213C4.63 25.3613 4.64 25.1613 4.65 24.8213C4.68 24.2913 5.38 24.8613 5.6 24.9613C5.59 24.4513 5.41 23.9013 5.18 23.3213C5.62 23.9113 6.11 24.4513 6.65 24.9313L6.45 25.1013C6.98 25.4713 6.84 25.8513 7.5 26.1913L7.52 26.2013C7.56 25.8213 7.27 25.5813 7.05 25.2613C8.59 26.5113 10.48 27.3413 12.57 27.5813L15.71 27.9413C16.23 28.0013 16.74 28.0113 17.25 28.0013C16.73 28.2613 16.2 28.4713 15.63 28.5913C15.7 29.1413 15.77 29.7313 16.16 30.2513C16.55 30.7713 17.3 31.2213 18.71 31.2213C19.13 31.2113 19.56 31.1513 19.99 31.0513C20.62 31.0913 21.32 31.0613 22.07 30.9313C22.24 30.7913 22.42 30.6413 22.62 30.5013C22.81 30.3413 23.02 30.1813 23.23 30.0213C23.67 29.7113 24.11 29.3613 24.56 29.0013C24.73 28.8713 24.88 28.7313 25.04 28.6013C25.14 28.5713 25.24 28.5413 25.34 28.5213C25.5 28.2813 25.78 27.9913 26.04 27.6913C26.04 27.6913 26.04 27.6913 26.05 27.6813C26.32 27.4113 26.57 27.1513 26.78 26.9213C28.31 25.6713 29.43 24.0413 30.11 22.2913C30.27 21.8513 30.41 21.4113 30.54 20.9613C30.66 20.5113 30.73 20.0613 30.82 19.6113C30.9 19.1613 30.91 18.7013 30.95 18.2513C30.99 17.7513 30.98 17.5213 30.98 17.1013ZM2.77 24.6713L2.81 24.6613C2.82 24.7113 2.82 24.7613 2.82 24.8113C2.81 24.7713 2.79 24.7213 2.77 24.6713Z" fill="#F65D34"/>
<path d="M15.0502 31.691C14.8102 31.691 14.4302 31.601 14.5502 31.441L14.1802 31.601L15.2702 31.761C15.0902 31.561 14.7502 31.401 14.7902 31.131L14.3202 31.041C14.7602 31.251 14.8602 31.481 15.0502 31.691Z" fill="#F65D34"/>
<path d="M15.24 31.2416C15.45 31.0516 15.16 30.9416 14.77 30.8516C14.35 30.9716 15.36 30.8116 15.03 31.1516C15.14 31.1616 15.21 31.1716 15.24 31.2416Z" fill="#F65D34"/>
<path d="M15.0398 31.1516C14.9698 31.1416 14.8898 31.1316 14.7998 31.1016C14.7998 31.1116 14.7998 31.1216 14.7998 31.1216L15.0198 31.1616C15.0298 31.1616 15.0298 31.1616 15.0398 31.1516Z" fill="#F65D34"/>
<path d="M12.4102 30.9814C12.4202 31.0414 12.4702 31.1114 12.5802 31.1814C12.6002 31.1314 12.5202 31.0614 12.4102 30.9814Z" fill="#F65D34"/>
<path d="M12.0498 30.2715C12.3398 30.4315 12.4898 30.5515 12.3798 30.7215L12.1398 30.6515C12.0798 30.7515 12.2598 30.8715 12.4098 30.9815C12.3698 30.7515 12.8698 30.6015 12.0498 30.2715Z" fill="#F65D34"/>
<path d="M13.5401 30.0215L13.3701 30.0715L14.4401 30.6215C14.3901 30.1815 13.9101 30.4315 13.5401 30.0215Z" fill="#F65D34"/>
<path d="M1.26994 23.5914L1.30994 23.5014C1.27994 23.4714 1.22994 23.4314 1.18994 23.4014C1.21994 23.4614 1.23994 23.5214 1.26994 23.5914Z" fill="#F65D34"/>
<path d="M0.890137 22.2217C0.910137 22.5617 0.950134 22.9017 1.02013 23.2417C1.09013 23.2917 1.14013 23.3517 1.20013 23.4017C0.980134 22.7717 1.29014 22.8817 0.890137 22.2217Z" fill="#F65D34"/>
<path d="M1.31006 23.5018C1.61006 23.8218 1.71006 24.1118 1.82006 24.4518C1.92006 24.8018 2.07006 25.1918 2.50006 25.6418C2.17006 24.7718 1.73006 23.9818 1.39006 23.3418L1.31006 23.5018Z" fill="#F65D34"/>
<defs>
<clipPath id="clip0_958_154">
<rect width="85.8947" height="34" fill="white" transform="translate(43)"/>
</clipPath>
</defs>
</svg>
